<?xml version="1.0" encoding="UTF-8"?>
<svg id="Layer_2" data-name="Layer 2" xmlns="http://www.w3.org/2000/svg" viewBox="0 0 21 21">
  <defs>
    <style>
      .cls-1 {
        fill: none;
        stroke: #000;
        stroke-linejoin: round;
      }
    </style>
  </defs>
  <g id="Layer_2-2" data-name="Layer 2">
    <g id="Layer_1-2" data-name="Layer 1-2">
      <path class="cls-1" d="m19.66,9.88c.56-1.28.84-2.45.84-3.57,0-1.4-.5-2.69-1.49-3.87-1.06-1.26-2.36-1.88-3.89-1.88s-2.67.61-3.59,1.84c-.16.19-.46.75-.46.75l-.48.8-.53-.82s-.33-.57-.51-.78c-.95-1.24-2.17-1.86-3.64-1.86-1.55,0-2.86.62-3.92,1.88-.99,1.16-1.48,2.45-1.48,3.87,0,1.13.29,2.32.86,3.56.64,1.4,1.63,2.87,2.98,4.43.31.38.86.98,1.62,1.81.56.61,1.06,1.15,1.51,1.63.45.47.86.88,1.2,1.2.99.97,1.89,1.63,1.89,1.63,0,0,.9-.72,2.04-1.84.56-.57,1.17-1.21,1.86-1.93.68-.72,1.42-1.53,2.19-2.43,1.37-1.57,2.36-3.05,3.01-4.43"/>
    </g>
  </g>
</svg>