<?xml version="1.0" encoding="UTF-8"?>
<svg id="Layer_2" data-name="Layer 2" xmlns="http://www.w3.org/2000/svg" viewBox="0 0 44 61">
  <defs>
    <style>
      .cls-1 {
        fill: #fff;
      }

      .cls-1, .cls-2 {
        stroke: #000;
        stroke-miterlimit: 10;
      }

      .cls-2 {
        fill: none;
        stroke-width: .5px;
      }
    </style>
  </defs>
  <g id="Layer_2-2" data-name="Layer 2">
    <g>
      <path class="cls-1" d="m5.42.5C2.7.5.5,2.68.5,5.37v50.27c0,2.69,2.2,4.86,4.92,4.86h33.15c2.72,0,4.92-2.18,4.92-4.86V5.37c0-2.69-2.2-4.87-4.92-4.87H5.42Z"/>
      <path class="cls-2" d="m31.53,35.39c.15-.27.26-.55.33-.85.08-.3.11-.61.11-.94,0-.69-.17-1.45-.51-2.26-.34-.82-.89-1.73-1.67-2.73-.5-.66-1.05-1.35-1.66-2.07-.6-.72-1.26-1.5-1.96-2.33-.46-.55-.94-1.1-1.43-1.64-.48-.54-1-1.1-1.53-1.68l-1.21-1.32-1.21,1.32c-.63.68-1.19,1.29-1.69,1.85-.5.56-.93,1.05-1.3,1.47-.6.71-1.21,1.42-1.81,2.14-.6.72-1.19,1.48-1.78,2.26-.77.99-1.33,1.9-1.67,2.75-.34.84-.51,1.59-.51,2.25,0,1.1.42,2.01,1.27,2.73.83.74,1.88,1.11,3.15,1.11.77,0,2.3-.15,3.11-.45.15-.05.29-.11.44-.17.14-.07.32-.15.53-.25-.02.13-.04.24-.06.35-.02.11-.04.21-.05.31-.26,1.08-1.49,3.18-1.49,3.18l-.6,1.02,7.43.02-.68-1.05s-.67-.97-.91-1.48c-.24-.52-.43-1.07-.58-1.65-.02-.11-.04-.22-.06-.34-.02-.12-.04-.24-.05-.37.2.1.38.18.54.25.16.07.31.13.46.17.81.3,2.04.45,2.8.45.54,0,1.33-.07,1.82-.22.49-.15.96-.39,1.42-.72.42-.31.76-.68,1.02-1.11"/>
      <path d="m33.98,51.91c-.03.06-.06.12-.07.19-.02.07-.02.13-.02.21,0,.15.04.32.11.5.08.18.2.38.37.6.11.14.23.3.36.45.13.16.28.33.43.51.1.12.21.24.31.36.11.12.22.24.34.37l.27.29.27-.29c.14-.15.26-.28.37-.41.11-.12.2-.23.28-.32.13-.15.27-.31.4-.47.13-.16.26-.32.39-.5.17-.22.29-.42.37-.6.07-.18.11-.35.11-.49,0-.24-.09-.44-.28-.6-.18-.16-.41-.24-.69-.24-.17,0-.5.03-.68.1-.03.01-.06.02-.1.04-.03.02-.07.03-.12.05,0-.03,0-.05.01-.08,0-.02,0-.05.01-.07.06-.24.33-.7.33-.7l.13-.22h-1.63s.15.22.15.22c0,0,.15.21.2.33.05.11.1.23.13.36,0,.02,0,.05.01.07,0,.03,0,.05.01.08-.04-.02-.08-.04-.12-.05-.03-.02-.07-.03-.1-.04-.18-.07-.45-.1-.61-.1-.12,0-.29.02-.4.05-.11.03-.21.09-.31.16-.09.07-.17.15-.22.24"/>
      <path d="m10.02,9.09c.03-.06.06-.12.07-.19.02-.07.02-.13.02-.21,0-.15-.04-.32-.11-.5-.08-.18-.2-.38-.37-.6-.11-.14-.23-.3-.36-.45-.13-.16-.28-.33-.43-.51-.1-.12-.21-.24-.31-.36-.11-.12-.22-.24-.34-.37l-.27-.29-.27.29c-.14.15-.26.28-.37.41-.11.12-.2.23-.28.32-.13.15-.27.31-.4.47-.13.16-.26.32-.39.5-.17.22-.29.42-.37.6-.07.18-.11.35-.11.49,0,.24.09.44.28.6.18.16.41.24.69.24.17,0,.5-.03.68-.1.03-.01.06-.02.1-.04.03-.02.07-.03.12-.05,0,.03,0,.05-.01.08,0,.02,0,.05-.01.07-.06.24-.33.7-.33.7l-.13.22h1.63s-.15-.22-.15-.22c0,0-.15-.21-.2-.33-.05-.11-.1-.23-.13-.36,0-.02,0-.05-.01-.07,0-.03,0-.05-.01-.08.04.02.08.04.12.05.03.02.07.03.1.04.18.07.45.1.61.1.12,0,.29-.02.4-.05.11-.03.21-.09.31-.16.09-.07.17-.15.22-.24"/>
    </g>
  </g>
</svg>