<?xml version="1.0" encoding="UTF-8"?>
<svg id="Layer_2" data-name="Layer 2" xmlns="http://www.w3.org/2000/svg" viewBox="0 0 44 61">
  <defs>
    <style>
      .cls-1 {
        fill: #2062ac;
      }

      .cls-2 {
        fill: #fff;
      }

      .cls-2, .cls-3 {
        stroke: #000;
        stroke-miterlimit: 10;
      }

      .cls-3 {
        fill: none;
        stroke-width: .5px;
      }
    </style>
  </defs>
  <g id="Layer_2-2" data-name="Layer 2">
    <g>
      <path class="cls-2" d="m5.42.5C2.7.5.5,2.68.5,5.37v50.27c0,2.69,2.2,4.86,4.92,4.86h33.15c2.72,0,4.92-2.18,4.92-4.86V5.37c0-2.69-2.2-4.87-4.92-4.87H5.42Z"/>
      <path class="cls-3" d="m25.34,25.61c-1.36-1.81-2.47-3.83-3.34-6.06-.84,2.2-1.97,4.23-3.36,6.08-1.4,1.85-3.05,3.48-4.95,4.89,1.92,1.46,3.57,3.09,4.96,4.9,1.39,1.81,2.51,3.82,3.35,6.04.84-2.22,1.96-4.23,3.35-6.04,1.39-1.81,3.04-3.44,4.96-4.9-1.95-1.46-3.61-3.09-4.97-4.9"/>
      <path class="cls-1" d="m8.54,7.92c-.3-.4-.54-.84-.73-1.33-.19.48-.43.93-.74,1.33-.31.41-.67.76-1.08,1.07.42.32.78.68,1.09,1.07.3.4.55.84.73,1.32.18-.49.43-.93.73-1.32.3-.4.67-.75,1.09-1.07-.43-.32-.79-.68-1.09-1.07"/>
      <path class="cls-1" d="m36.68,52.88c-.3-.4-.54-.84-.73-1.33-.19.48-.43.93-.74,1.33-.31.41-.67.76-1.08,1.07.42.32.78.68,1.09,1.07.3.4.55.84.73,1.32.18-.49.43-.93.73-1.32.3-.4.67-.75,1.09-1.07-.43-.32-.79-.68-1.09-1.07"/>
    </g>
  </g>
</svg>