<?xml version="1.0" encoding="UTF-8"?>
<svg id="Layer_2" data-name="Layer 2" xmlns="http://www.w3.org/2000/svg" viewBox="0 0 44 61">
  <defs>
    <style>
      .cls-1 {
        fill: #cd1719;
      }

      .cls-2 {
        fill: #fff;
        stroke-miterlimit: 10;
      }

      .cls-2, .cls-3 {
        stroke: #000;
      }

      .cls-3 {
        fill: none;
        stroke-linejoin: round;
        stroke-width: .5px;
      }
    </style>
  </defs>
  <g id="Layer_2-2" data-name="Layer 2">
    <g>
      <path class="cls-2" d="m5.42.5C2.7.5.5,2.68.5,5.37v50.27c0,2.69,2.2,4.86,4.92,4.86h33.15c2.72,0,4.92-2.18,4.92-4.86V5.37c0-2.69-2.2-4.87-4.92-4.87H5.42Z"/>
      <g id="Layer_1-2" data-name="Layer 1-2">
        <path class="cls-3" d="m32.15,29.82c.62-1.4.93-2.69.93-3.9,0-1.54-.56-2.94-1.66-4.23-1.18-1.38-2.61-2.06-4.31-2.06s-2.96.67-3.97,2.02c-.17.2-.51.82-.51.82l-.53.87-.59-.9s-.37-.63-.57-.85c-1.06-1.35-2.41-2.04-4.03-2.04-1.72,0-3.17.68-4.35,2.06-1.1,1.27-1.64,2.69-1.64,4.23,0,1.24.32,2.54.96,3.89.71,1.54,1.81,3.15,3.3,4.85.35.42.95,1.08,1.8,1.98.62.67,1.18,1.26,1.68,1.78.5.51.95.96,1.33,1.31,1.1,1.07,2.09,1.78,2.09,1.78,0,0,1-.79,2.27-2.02.62-.62,1.3-1.32,2.06-2.11.75-.79,1.57-1.67,2.43-2.66,1.51-1.72,2.61-3.34,3.33-4.85"/>
      </g>
      <g id="Layer_1-2-2" data-name="Layer 1-2">
        <path class="cls-1" d="m10.15,7.87c.14-.31.2-.59.2-.86,0-.34-.12-.65-.36-.93-.26-.3-.57-.45-.95-.45s-.65.15-.87.44c-.04.04-.11.18-.11.18l-.12.19-.13-.2s-.08-.14-.12-.19c-.23-.3-.53-.45-.88-.45-.38,0-.69.15-.95.45-.24.28-.36.59-.36.93,0,.27.07.56.21.85.16.34.4.69.72,1.06.08.09.21.24.39.44.14.15.26.28.37.39.11.11.21.21.29.29.24.23.46.39.46.39,0,0,.22-.17.5-.44.14-.14.28-.29.45-.46.16-.17.34-.37.53-.58.33-.38.57-.73.73-1.06"/>
      </g>
      <g id="Layer_1-2-3" data-name="Layer 1-2">
        <path class="cls-1" d="m33.85,53.13c-.14.31-.2.59-.2.86,0,.34.12.65.36.93.26.3.57.45.95.45s.65-.15.87-.44c.04-.04.11-.18.11-.18l.12-.19.13.2s.08.14.12.19c.23.3.53.45.88.45.38,0,.69-.15.95-.45.24-.28.36-.59.36-.93,0-.27-.07-.56-.21-.85-.16-.34-.4-.69-.72-1.06-.08-.09-.21-.24-.39-.44-.14-.15-.26-.28-.37-.39-.11-.11-.21-.21-.29-.29-.24-.23-.46-.39-.46-.39,0,0-.22.17-.5.44-.14.14-.28.29-.45.46-.16.17-.34.37-.53.58-.33.38-.57.73-.73,1.06"/>
      </g>
    </g>
  </g>
</svg>