<?xml version="1.0" encoding="UTF-8"?>
<svg id="Layer_2" data-name="Layer 2" xmlns="http://www.w3.org/2000/svg" viewBox="0 0 44 61">
  <defs>
    <style>
      .cls-1 {
        fill: #248736;
      }

      .cls-2 {
        fill: #fff;
      }

      .cls-2, .cls-3 {
        stroke: #000;
        stroke-miterlimit: 10;
      }

      .cls-3 {
        fill: none;
        stroke-width: .5px;
      }
    </style>
  </defs>
  <g id="Layer_2-2" data-name="Layer 2">
    <g>
      <path class="cls-2" d="m5.42.5C2.7.5.5,2.68.5,5.37v50.27c0,2.69,2.2,4.86,4.92,4.86h33.15c2.72,0,4.92-2.18,4.92-4.86V5.37c0-2.69-2.2-4.87-4.92-4.87H5.42Z"/>
      <path class="cls-3" d="m32.41,35.15c.45-.75.67-1.58.67-2.47,0-1.22-.47-2.3-1.42-3.21-.94-.94-2.05-1.4-3.34-1.4-.59,0-1.19.11-1.8.33-.6.21-1.19.47-1.77.76-.03.01-.06,0-.08-.01l-.05-.05s-.03-.05,0-.08l1.71-2.06c.51-.82.76-1.62.76-2.4,0-1.24-.5-2.3-1.5-3.19-.97-.85-2.16-1.27-3.59-1.27s-2.63.42-3.61,1.27c-.98.86-1.47,1.91-1.47,3.14,0,.76.26,1.55.79,2.4.23.36.48.71.76,1.06.27.33.56.66.87.98.02.02.02.06,0,.08l-.03.03s-.05.03-.08.02c-.3-.12-.58-.23-.85-.36-.29-.13-.58-.26-.9-.4-.59-.23-1.19-.34-1.82-.34-1.31,0-2.43.47-3.37,1.4-.91.91-1.37,1.98-1.37,3.21s.47,2.41,1.42,3.39c.95.98,2.11,1.47,3.49,1.47.34,0,.7-.05,1.06-.15.36-.1.72-.23,1.07-.39.35-.17.69-.36,1.02-.57.33-.21.62-.43.89-.66.05.04.07.08.07.11.03.09.05.19.05.29,0,.48-.13,1.07-.39,1.74-.24.72-1.23,3.02-1.23,3.02l7.17.02s-.59-1.5-.98-2.45c-.38-.96-.57-1.72-.57-2.26,0-.06.02-.15.05-.27,0-.04.03-.09.07-.14.2.15.4.3.6.45.2.15.42.29.63.43.48.3.95.52,1.41.67.47.15.93.21,1.39.21.79,0,1.55-.19,2.29-.59.87-.45,1.53-1.05,1.98-1.81"/>
      <path class="cls-1" d="m10.21,9.04c.1-.17.15-.35.15-.54,0-.27-.1-.5-.31-.7-.21-.21-.45-.31-.73-.31-.13,0-.26.02-.4.07-.13.05-.26.1-.39.17,0,0-.01,0-.02,0h-.01s0-.02,0-.03l.38-.45c.11-.18.17-.35.17-.53,0-.27-.11-.5-.33-.7-.21-.19-.47-.28-.79-.28s-.58.09-.79.28c-.22.19-.32.42-.32.69,0,.17.06.34.17.53.05.08.11.16.17.23.06.07.12.14.19.21,0,0,0,.01,0,.02h0s-.01.01-.02.01c-.07-.03-.13-.05-.19-.08-.06-.03-.13-.06-.2-.09-.13-.05-.26-.07-.4-.07-.29,0-.53.1-.74.31-.2.2-.3.43-.3.7s.1.53.31.74c.21.22.46.32.77.32.08,0,.15-.01.23-.03.08-.02.16-.05.23-.09.08-.04.15-.08.22-.12.07-.05.14-.09.19-.14.01,0,.02.02.02.02,0,.02.01.04.01.06,0,.11-.03.23-.09.38-.05.16-.27.66-.27.66h1.57s-.13-.32-.21-.53c-.08-.21-.13-.38-.13-.5,0-.01,0-.03.01-.06,0,0,0-.02.02-.03.04.03.09.07.13.1.04.03.09.06.14.09.1.07.21.11.31.15.1.03.2.05.3.05.17,0,.34-.04.5-.13.19-.1.33-.23.43-.4"/>
      <path class="cls-1" d="m33.79,51.96c-.1.17-.15.35-.15.54,0,.27.1.5.31.7.21.21.45.31.73.31.13,0,.26-.02.4-.07.13-.05.26-.1.39-.17,0,0,.01,0,.02,0h.01s0,.02,0,.03l-.38.45c-.11.18-.17.35-.17.53,0,.27.11.5.33.7.21.19.47.28.79.28s.58-.09.79-.28c.22-.19.32-.42.32-.69,0-.17-.06-.34-.17-.53-.05-.08-.11-.16-.17-.23-.06-.07-.12-.14-.19-.21,0,0,0-.01,0-.02h0s.01-.01.02-.01c.07.03.13.05.19.08.06.03.13.06.2.09.13.05.26.07.4.07.29,0,.53-.1.74-.31.2-.2.3-.43.3-.7s-.1-.53-.31-.74c-.21-.22-.46-.32-.77-.32-.08,0-.15.01-.23.03-.08.02-.16.05-.23.09-.08.04-.15.08-.22.12-.07.05-.14.09-.19.14-.01,0-.02-.02-.02-.02,0-.02-.01-.04-.01-.06,0-.11.03-.23.09-.38.05-.16.27-.66.27-.66h-1.57s.13.32.21.53c.08.21.13.38.13.5,0,.01,0,.03-.01.06,0,0,0,.02-.02.03-.04-.03-.09-.07-.13-.1-.04-.03-.09-.06-.14-.09-.1-.07-.21-.11-.31-.15-.1-.03-.2-.05-.3-.05-.17,0-.34.04-.5.13-.19.1-.33.23-.43.4"/>
    </g>
  </g>
</svg>