<?xml version="1.0" encoding="UTF-8"?>
<svg id="Layer_2" data-name="Layer 2" xmlns="http://www.w3.org/2000/svg" viewBox="0 0 44 61">
  <defs>
    <style>
      .cls-1 {
        fill: #83739a;
      }

      .cls-2 {
        fill: #fff;
        stroke-miterlimit: 10;
      }

      .cls-2, .cls-3 {
        stroke: #000;
      }

      .cls-3 {
        fill: none;
        stroke-linejoin: round;
        stroke-width: .5px;
      }
    </style>
  </defs>
  <g id="Layer_2-2" data-name="Layer 2">
    <g>
      <path class="cls-2" d="m5.42.5C2.7.5.5,2.68.5,5.37v50.27c0,2.69,2.2,4.86,4.92,4.86h33.15c2.72,0,4.92-2.18,4.92-4.86V5.37c0-2.69-2.2-4.87-4.92-4.87H5.42Z"/>
      <path class="cls-3" d="m14.47,40.87c-.05-.9-.07-1.76-.15-2.63-.17-1.87-.53-3.69-1.36-5.33-.4-.8-.91-1.48-1.6-1.98-.1-.07-.19-.13-.32-.22-.18.61-.49,1.06-1.01,1.28-.33.14-.67.16-1.01.05-.69-.24-1.15-.97-1.14-1.81.01-.83.49-1.54,1.2-1.75.74-.23,1.4.15,1.91,1.13.25-.12.5-.24.75-.35,1.01-.44,2.05-.76,3.14-.78,1.69-.02,3,.76,3.8,2.53.01.03.03.05.09.13,0-.11,0-.18,0-.24-.3-2.66.53-4.79,2.35-6.42,1.03-.92,2.22-1.49,3.46-1.92.09-.03.18-.06.3-.1-.13-.64-.11-1.26.28-1.74.22-.27.51-.51.81-.63.64-.27,1.36.06,1.76.72.39.65.37,1.52-.05,2.16-.47.73-1.15.88-2.16.47-1.22,2.54-1.4,5.94-.13,8.33,1.84-3.31,4.46-3.89,7.54-2.87.15-.56.41-1.05.89-1.26.29-.13.63-.2.94-.16.72.1,1.25.76,1.34,1.57.09.82-.3,1.6-.95,1.93-.74.38-1.39.12-2.11-.86-.38.43-.77.85-1.13,1.29-1.33,1.65-2.34,3.49-2.76,5.73-.23,1.22-.22,2.45.01,3.67.01.06.02.13.03.22-4.92-.05-9.82-.09-14.73-.14Z"/>
      <path class="cls-1" d="m7.4,11.01c-.01-.23-.02-.45-.04-.67-.04-.48-.13-.95-.35-1.37-.1-.2-.23-.38-.41-.51-.02-.02-.05-.03-.08-.06-.05.16-.13.27-.26.33-.08.04-.17.04-.26.01-.18-.06-.3-.25-.29-.46,0-.21.13-.39.31-.45.19-.06.36.04.49.29.06-.03.13-.06.19-.09.26-.11.53-.2.81-.2.43,0,.77.19.98.65,0,0,0,.01.02.03,0-.03,0-.05,0-.06-.08-.68.13-1.23.6-1.65.26-.24.57-.38.89-.49.02,0,.05-.02.08-.03-.03-.16-.03-.32.07-.45.06-.07.13-.13.21-.16.16-.07.35.02.45.18.1.17.09.39-.01.55-.12.19-.29.22-.55.12-.31.65-.36,1.52-.03,2.14.47-.85,1.14-1,1.94-.74.04-.14.11-.27.23-.32.07-.03.16-.05.24-.04.19.03.32.2.34.4.02.21-.08.41-.24.5-.19.1-.36.03-.54-.22-.1.11-.2.22-.29.33-.34.42-.6.9-.71,1.47-.06.31-.06.63,0,.94,0,.02,0,.03,0,.06-1.26-.01-2.52-.02-3.78-.04Z"/>
      <path class="cls-1" d="m36.6,49.99c.01.23.02.45.04.67.04.48.13.95.35,1.37.1.2.23.38.41.51.02.02.05.03.08.06.05-.16.13-.27.26-.33.08-.04.17-.04.26-.01.18.06.3.25.29.46,0,.21-.13.39-.31.45-.19.06-.36-.04-.49-.29-.06.03-.13.06-.19.09-.26.11-.53.2-.81.2-.43,0-.77-.19-.98-.65,0,0,0-.01-.02-.03,0,.03,0,.05,0,.06.08.68-.13,1.23-.6,1.65-.26.24-.57.38-.89.49-.02,0-.05.02-.08.03.03.16.03.32-.07.45-.06.07-.13.13-.21.16-.16.07-.35-.02-.45-.18-.1-.17-.09-.39.01-.55.12-.19.29-.22.55-.12.31-.65.36-1.52.03-2.14-.47.85-1.14,1-1.94.74-.04.14-.11.27-.23.32-.07.03-.16.05-.24.04-.19-.03-.32-.2-.34-.4-.02-.21.08-.41.24-.5.19-.1.36-.03.54.22.1-.11.2-.22.29-.33.34-.42.6-.9.71-1.47.06-.31.06-.63,0-.94,0-.02,0-.03,0-.06,1.26.01,2.52.02,3.78.04Z"/>
    </g>
  </g>
</svg>