<?xml version="1.0" encoding="UTF-8"?>
<svg id="Layer_2" data-name="Layer 2" xmlns="http://www.w3.org/2000/svg" viewBox="0 0 28 23">
  <defs>
    <style>
      .cls-1 {
        fill: #ffffff;
      }
    </style>
  </defs>
  <g id="Layer_2-2" data-name="Layer 2">
    <g>
      <path class="cls-1" d="m24.52,22.75c-.08,0-.16-.02-.23-.07-.15-.1-.27-.2-.35-.31-.07-.09-.13-.18-.19-.28-.05-.08-.1-.16-.16-.24-.23-.3-.43-.56-.66-.79-.13-.14-.3-.21-.49-.21-.08,0-.16.01-.25.03-.41.1-.73.25-.98.45-.13.11-.25.25-.34.4-.15.26-.38.41-.62.41-.14,0-.34-.05-.54-.28-.19-.22-.35-.46-.5-.71-.09-.15-.18-.2-.37-.22-.56-.07-.97-.35-1.18-.81-.24-.52-.37-1.02-.41-1.52-.03-.47-.18-.91-.33-1.38-.05-.16-.1-.31-.15-.47-.32-1.08-.96-2.02-1.63-2.97-.03-.04-.06-.09-.1-.13.05.26.1.53.12.79.06.64.11,1.33.08,2.03-.02.36-.13.7-.25,1.02l-.07.21c-.12.37-.48.61-.89.61-.19,0-.37-.05-.52-.15-.28-.18-.46-.41-.53-.73-.03-.11-.06-.22-.09-.33-.07-.24-.13-.48-.16-.73-.02-.24,0-.47.03-.69.01-.09.05-.43.05-.43-.05-.55.05-1.07.15-1.57l.02-.09c-.46.61-.93,1.28-1.28,2-.58,1.19-.89,2.23-.98,3.26-.05.51-.21.99-.48,1.42-.24.38-.65.61-1.17.64-.13,0-.16.04-.2.09-.18.28-.31.47-.45.66-.07.1-.17.22-.31.31-.12.08-.26.13-.39.13-.24,0-.45-.13-.57-.36-.29-.54-.78-.82-1.62-.93h0c-.16,0-.29.06-.44.18-.25.2-.46.46-.68.81-.14.22-.28.44-.45.63-.09.11-.22.15-.32.19-.04.02-.11.04-.17.04-.03,0-.06,0-.08-.01-.07-.03-.16-.06-.18-.13-.08-.19-.13-.31-.12-.45.03-.25.1-.46.21-.62.21-.31.43-.62.66-.92l.39-.53c.11-.15.22-.3.31-.45.15-.25.13-.51-.06-.88,0,0,0,0,0,0,0,0-.04-.02-.1-.04-.22-.08-.41-.21-.33-.58l.06-.25c.03-.12.06-.23.08-.35.05-.32-.01-.42-.32-.52-.12-.04-.27-.1-.34-.25-.07-.15-.03-.3,0-.42.06-.16.14-.31.22-.46.17-.29.15-.51-.05-.73-.32-.34-.32-.72.01-1.06.27-.28.47-.6.6-.99.13-.42.38-.78.73-1.09.2-.17.38-.31.56-.44-.49-.02-.94-.07-1.37-.18-.39-.09-.71-.27-1-.57-.29-.3-.49-.56-.63-.85-.03-.07-.12-.15-.15-.17-.24-.21-.36-.49-.34-.8.02-.31-.07-.58-.27-.83-.14-.18-.2-.4-.15-.64.03-.14,0-.27-.08-.41-.17-.28-.34-.66-.18-1.12.03-.08-.04-.15-.08-.18-.27-.25-.3-.55-.3-.78,0-.08-.03-.19-.09-.33-.12-.28-.23-.58-.14-.95,0,0,0,0,0,0,0,0-.02-.04-.05-.1-.05-.09-.12-.18-.18-.26l-.09-.13c-.14-.2-.19-.43-.13-.66.03-.12,0-.23-.07-.33-.18-.24-.2-.49-.03-.75.01-.02.02-.09,0-.15-.11-.5.02-.74.49-.9.4-.14.81-.21,1.27-.21.26,0,.53.02.79.06.65.09,1.3.32,1.98.71,1.78,1.01,3.34,2.19,4.66,3.5,1.1,1.1,2.06,2.24,2.85,3.38.08.12.17.24.26.35.16.18.27.38.35.57.05-.06.11-.11.18-.15-.15-.16-.29-.31-.43-.47-.07-.08-.13-.17-.19-.26l-.39-.57-.43-.62c-.12-.17-.23-.34-.34-.51-.17-.28-.34-.57-.5-.86-.03-.05-.04-.2-.02-.26,0-.07.04-.14.1-.18.05-.04.1-.06.16-.06,0,0,.02,0,.03,0,.08,0,.2,0,.29.11l.08.09c.09.11.2.24.26.39.23.52.52,1.04.96,1.69.05.07.08.11.09.15.15.3.38.53.62.78.1.1.21.21.3.31.06-.03.12-.05.2-.05s.15.02.22.06c0,0,.02-.02.03-.03.12-.13.25-.25.38-.38l.17-.17.26-.39c.2-.31.4-.62.59-.94.15-.26.29-.52.43-.79l.25-.47c.06-.1.13-.19.23-.27.04-.04.19-.08.25-.08.01,0,.03,0,.04,0,.06,0,.12.02.16.05.06.04.1.11.11.18.01.07.03.17-.02.27-.17.29-.33.58-.51.87-.09.14-.19.28-.28.42l-.64.94s-.18.3-.22.36c-.05.08-.11.15-.17.22l-.45.48c.07.04.13.1.18.16.09-.2.2-.4.35-.59.59-.8,1.23-1.62,1.91-2.43.99-1.19,2.23-2.32,3.77-3.45.84-.61,1.74-1.24,2.76-1.68.67-.29,1.35-.44,2.02-.44.36,0,.73.04,1.08.13.16.04.32.1.49.19.26.13.38.4.29.68-.05.16-.04.26.04.38.12.17.05.43-.03.54-.12.17-.16.33-.12.52.03.14,0,.29-.09.48-.07.15-.17.28-.25.38-.09.12-.12.22-.1.38.03.26-.06.52-.15.72-.07.16-.12.31-.11.46.03.25-.06.48-.25.65-.12.12-.15.22-.1.37.14.4-.07.75-.14.87-.13.22-.18.42-.15.63.03.19-.06.4-.15.53-.2.28-.29.56-.27.86.02.34-.15.58-.3.75-.1.11-.18.25-.26.38l-.12.19c-.04.08-.07.14-.12.19-.71.73-1.1.91-2.11.99-.2.02-.4.03-.6.03.2.14.38.28.54.42.38.32.64.71.79,1.18.11.34.28.63.53.88.38.39.39.75.02,1.15-.16.18-.18.35-.07.58.03.06.06.12.1.18.06.1.11.21.16.32.06.14.1.3.03.45-.07.16-.22.23-.37.28-.28.1-.35.2-.3.49.02.14.05.27.09.4l.04.18c.08.37-.02.55-.38.65-.03,0-.06.02-.09.09-.17.37-.14.68.08.98,0,0,.83,1.11,1.04,1.39.12.16.22.34.32.52.12.22.15.47.08.74-.06.24-.23.32-.37.32Z"/>
      <path d="m25.79.5c.34,0,.68.04,1.02.12.15.04.3.1.44.17.15.08.22.21.16.38-.07.21-.06.4.07.59.04.06.02.2-.03.26-.15.22-.21.44-.16.71.02.1-.03.22-.07.32-.06.12-.14.23-.22.33-.13.17-.18.33-.16.56.02.19-.05.41-.13.6-.08.19-.15.37-.12.59.02.17-.04.32-.17.43-.19.18-.25.38-.17.64.08.24,0,.46-.12.66-.15.25-.22.5-.18.79.02.11-.04.26-.11.35-.22.31-.34.64-.31,1.02.01.23-.09.4-.24.57-.16.18-.27.39-.4.59-.03.05-.05.11-.09.15-.66.68-.99.84-1.95.92-.5.04-1,.04-1.53.06.51.19.93.5,1.33.84.34.29.58.65.72,1.07.12.37.31.7.59.98.29.3.29.5.02.81-.24.27-.26.55-.11.86.08.16.18.32.25.48.1.24.05.32-.19.4-.39.13-.53.36-.47.76.03.2.09.4.14.59.05.23.03.28-.2.35-.13.04-.2.11-.25.23-.2.43-.18.85.11,1.24.35.47.7.93,1.04,1.39.11.15.21.32.3.49.09.18.11.37.06.56-.02.09-.07.13-.13.13-.03,0-.06-.01-.1-.03-.11-.07-.21-.15-.29-.25-.13-.16-.22-.36-.35-.52-.21-.28-.43-.56-.68-.81-.19-.19-.42-.28-.67-.28-.1,0-.2.01-.3.04-.39.1-.77.24-1.08.5-.16.13-.3.3-.4.47-.11.18-.26.29-.41.29-.12,0-.24-.06-.35-.19-.18-.21-.33-.45-.48-.68-.13-.21-.29-.3-.55-.33-.41-.05-.79-.24-.98-.66-.21-.46-.35-.93-.39-1.43-.04-.66-.3-1.27-.49-1.9-.34-1.13-.99-2.09-1.67-3.04-.17-.23-.34-.45-.51-.68-.04-.05-.09-.1-.18-.14,0,.07,0,.15.02.22.08.48.2.95.25,1.44.06.66.11,1.33.08,1.99-.02.39-.18.79-.31,1.17-.09.28-.37.44-.66.44-.13,0-.27-.04-.39-.11-.23-.14-.36-.32-.42-.57-.08-.34-.2-.68-.24-1.03-.03-.3.04-.6.06-.91,0-.07.03-.14.02-.21-.07-.71.14-1.38.24-2.06.02-.12.04-.25.06-.37-.03-.02-.05-.04-.08-.06-.03.05-.05.12-.09.16-.63.82-1.27,1.64-1.72,2.58-.51,1.06-.9,2.16-1.01,3.34-.04.47-.19.92-.44,1.31-.21.34-.57.5-.97.53-.18.01-.3.06-.39.2-.15.22-.29.44-.44.65-.07.09-.15.19-.24.25-.08.06-.17.08-.25.08-.14,0-.27-.08-.35-.23-.39-.72-1.06-.96-1.81-1.06-.02,0-.05,0-.07,0-.21,0-.4.11-.56.24-.3.25-.53.54-.73.87-.13.21-.26.42-.43.6-.08.09-.22.12-.33.17-.04-.12-.12-.24-.1-.34.02-.18.07-.36.17-.51.3-.45.63-.88.95-1.32.14-.2.29-.39.41-.59.23-.38.14-.76-.05-1.13-.04-.07-.15-.12-.23-.15-.18-.07-.22-.11-.18-.3.04-.2.11-.4.14-.61.07-.44-.07-.66-.49-.8-.2-.07-.25-.14-.18-.35.05-.14.13-.28.2-.42.2-.33.23-.69-.09-1.02-.23-.24-.22-.47.01-.71.31-.31.52-.67.66-1.09.12-.38.35-.71.66-.98.4-.35.83-.66,1.34-.89-.04,0-.08,0-.12,0-.02,0-.04,0-.06,0-.17,0-.33.01-.5.01-.53,0-1.06-.05-1.58-.17-.35-.08-.62-.25-.88-.5-.24-.24-.44-.48-.59-.78-.04-.09-.12-.18-.2-.25-.18-.16-.27-.36-.26-.6.02-.37-.09-.7-.32-1-.1-.13-.13-.28-.11-.44.04-.21,0-.4-.11-.58-.17-.28-.28-.57-.16-.91.06-.17-.01-.33-.14-.45-.18-.16-.22-.36-.22-.59,0-.15-.05-.3-.11-.44-.11-.25-.2-.5-.13-.79.02-.08-.03-.2-.08-.28-.08-.14-.19-.27-.28-.41-.1-.14-.13-.29-.1-.46.05-.2,0-.38-.12-.54-.12-.15-.13-.29-.02-.47.06-.09.06-.23.04-.33-.08-.36-.03-.49.33-.61.39-.14.79-.19,1.19-.19.25,0,.5.02.76.06.68.1,1.3.35,1.89.68,1.68.96,3.24,2.1,4.6,3.46,1.03,1.03,1.99,2.14,2.82,3.35.09.13.17.26.28.38.25.28.37.62.45.98.04.19.1.25.35.31-.02-.1-.03-.19-.07-.26-.17-.25-.07-.54.23-.61.05-.01.1-.02.21-.05-.25-.27-.47-.51-.69-.75-.07-.08-.13-.18-.19-.27-.07-.1-.13-.2-.2-.29-.17-.24-.34-.48-.5-.72-.15-.21-.3-.43-.44-.65-.17-.28-.33-.56-.49-.85-.02-.03,0-.09.01-.13.04,0,.11,0,.13.02.11.14.24.27.31.43.27.61.61,1.17.98,1.72.03.04.06.08.08.12.24.49.69.82,1.03,1.22.02.03.06.05.1.08.07-.08.14-.13.21-.13s.17.06.26.2c.07-.1.1-.19.16-.25.18-.19.36-.37.54-.55.02-.02.04-.04.06-.06.28-.44.57-.87.83-1.32.24-.41.45-.84.68-1.27.04-.08.11-.15.18-.21.03-.03.1-.02.15-.03,0,.04.02.1,0,.13-.16.29-.33.58-.5.86-.13.2-.27.4-.4.59-.17.25-.34.5-.51.76-.08.12-.15.25-.23.37-.04.07-.09.13-.15.18-.23.25-.46.49-.72.77.12.03.18.04.25.06.25.07.35.36.21.58-.05.07-.06.17-.11.3.22-.07.34-.15.37-.33.07-.37.24-.7.46-1.01.61-.82,1.24-1.63,1.9-2.42,1.09-1.31,2.36-2.41,3.73-3.41.86-.62,1.73-1.23,2.71-1.66.62-.27,1.26-.42,1.92-.42m0-.5c-.7,0-1.41.16-2.12.46-1.04.45-1.96,1.09-2.81,1.71-1.4,1.02-2.55,2.05-3.5,3.12,0-.09,0-.16-.01-.2-.01-.14-.08-.27-.19-.35-.09-.07-.19-.1-.3-.1-.03,0-.06,0-.09,0-.06,0-.23.01-.38.14-.13.11-.22.23-.29.34-.09.16-.17.32-.26.48-.14.26-.27.52-.42.78-.19.32-.39.63-.59.95l-.2.31s-.01.01-.01.01l-.19.19c-.09.09-.19.19-.28.28-.05-.01-.1-.02-.15-.02-.04,0-.09,0-.13.01-.07-.07-.13-.14-.2-.2-.23-.23-.45-.45-.58-.71-.03-.05-.06-.1-.1-.15-.44-.66-.73-1.17-.95-1.67-.08-.18-.2-.33-.3-.45l-.07-.08c-.16-.2-.39-.21-.46-.21-.02,0-.05,0-.07,0-.11,0-.21.04-.3.1-.11.08-.17.21-.19.34,0,.04-.02.11-.02.2-.29-.31-.58-.63-.89-.93-1.33-1.33-2.92-2.52-4.71-3.54C4.33.41,3.65.17,2.97.07c-.3-.04-.57-.06-.83-.06C1.65,0,1.21.08.78.23.04.48.04.99.13,1.41c0,0,0,0,0,0-.19.34-.17.69.07,1,.04.06.04.08.03.11-.07.31-.01.61.17.87l.09.12c.06.08.12.16.16.24,0,0,0,.01,0,.01-.07.39.05.73.18,1.01.06.15.07.21.07.23,0,.26.03.64.37.95-.16.53.05.98.22,1.27.06.11.06.17.05.23-.06.31.01.6.2.84.16.21.23.42.21.67-.02.39.12.74.42,1,.07.06.08.09.09.09.16.32.37.6.68.92.32.33.69.54,1.12.64.25.06.5.1.76.13-.02.02-.04.03-.06.05-.39.34-.66.74-.81,1.2-.12.35-.29.64-.54.89-.43.44-.43.97-.02,1.41.1.1.16.19.02.43-.08.14-.18.31-.24.5-.03.09-.13.35,0,.61.13.26.39.35.49.38.12.04.16.07.17.08,0,0,0,.05-.01.17-.02.11-.05.22-.07.33-.02.08-.04.17-.06.26-.09.43.08.72.49.87,0,0,0,0,0,0,.14.31.08.44.02.55-.09.15-.2.29-.3.44l-.09.12-.3.41c-.22.31-.45.61-.66.92-.13.19-.21.44-.25.73-.03.21.05.38.1.49,0,.02.02.04.03.06.05.14.15.25.28.3.06.03.13.04.2.04.07,0,.15-.02.22-.05.02-.01.05-.02.07-.03.11-.04.28-.11.42-.26.2-.22.35-.47.48-.67.2-.33.4-.56.62-.75.14-.11.21-.13.25-.13.77.1,1.2.34,1.45.8.17.31.46.49.79.49.19,0,.37-.06.53-.17.16-.11.28-.25.36-.36.15-.2.28-.4.41-.61l.03-.05c.63-.05,1.1-.32,1.38-.76.29-.46.46-.98.52-1.53.09-1,.4-2.01.96-3.17.18-.38.4-.75.64-1.1-.02.22-.02.44,0,.68-.01.04-.02.08-.02.12,0,.08-.02.17-.03.25-.03.22-.06.48-.03.74.03.28.1.53.17.78.03.11.06.21.08.32.09.38.3.67.65.88.19.12.42.18.65.18.52,0,.97-.31,1.13-.78l.07-.2c.11-.33.25-.71.26-1.1.03-.63,0-1.25-.06-1.84.46.69.87,1.4,1.1,2.17.05.16.1.32.15.48.15.45.29.88.32,1.32.04.53.18,1.06.43,1.6.24.53.73.87,1.37.95.14.02.15.04.19.1.15.23.32.5.52.74.2.23.46.36.73.36.34,0,.64-.19.84-.53.07-.13.17-.24.28-.33.22-.18.5-.31.88-.4.06-.02.13-.02.19-.02.13,0,.23.04.31.13.21.21.4.46.6.71l.04.05c.05.07.1.14.14.22.07.11.13.21.21.31.1.13.24.25.42.36.11.07.24.11.37.11.3,0,.54-.2.61-.52.08-.32.04-.64-.1-.91-.12-.23-.23-.4-.34-.55-.21-.28-.42-.56-.63-.84l-.41-.55c-.17-.22-.19-.43-.07-.7.44-.15.61-.46.5-.93l-.05-.19c-.03-.12-.06-.24-.08-.36-.02-.11,0-.14,0-.15,0,0,0,0,0,0,0,0,.03-.03.14-.07.12-.04.39-.13.52-.41.11-.24.05-.47-.02-.65-.05-.12-.11-.24-.17-.35-.03-.06-.06-.11-.09-.17-.08-.16-.05-.22.03-.3.45-.51.44-1.01-.03-1.49-.22-.23-.37-.48-.47-.79-.17-.51-.46-.95-.87-1.29,0,0-.01-.01-.02-.02,1.02-.09,1.47-.31,2.2-1.07.08-.08.12-.16.14-.21.05-.08.09-.14.13-.21.08-.13.15-.25.24-.35.17-.19.39-.49.36-.93-.01-.25.06-.47.22-.71.06-.08.24-.38.2-.71-.02-.16.01-.3.11-.47.08-.14.33-.56.16-1.07-.02-.06-.02-.06.04-.12.24-.22.36-.53.32-.85,0-.08.03-.19.09-.34.09-.22.2-.53.16-.84-.01-.09,0-.13.05-.19.09-.11.2-.25.28-.42.11-.24.15-.44.11-.63-.02-.11-.02-.2.08-.33.15-.21.21-.57.03-.83-.02-.04-.04-.06,0-.16.13-.4-.04-.79-.41-.98-.19-.1-.37-.16-.54-.21-.38-.09-.76-.14-1.14-.14h0Z"/>
    </g>
  </g>
</svg>