<?xml version="1.0" encoding="UTF-8"?>
<svg id="Layer_2" data-name="Layer 2" xmlns="http://www.w3.org/2000/svg" viewBox="0 0 350 14.34">
  <defs>
    <style>
      .cls-1 {
        fill: none;
      }

      .cls-1, .cls-2 {
        stroke: #000;
        stroke-width: .2px;
      }
    </style>
  </defs>
  <g id="Layer_1-2" data-name="Layer 1">
    <g>
      <path d="m45.43,7.51l-.88-.08.29-.06h1.18s.88.06.88.06v.06c-.29.02-.79.03-1.47.02m-8.83.49l-.79-.03.2-.1.69-.04,1.47.02c.39.01.39.05,0,.11l-1.57.04Zm5.69.28c-.49-.02-.78-.08-.78-.19l1.57-.18,1.47.03.29.18-.78.11h-.29c-.2.03-1.18.05-1.47.05m-39.25.67c0-.08.39-.16,1.08-.23l-.2-.04v-.05l1.08.02c1.57-.09,3.34-.13,5.4-.13h7.07l2.45-.08h2.85c.1-.14.2-.35.1-.62l.69.2,1.08.44,1.18.06h.78s9.32,0,9.32,0h.59s.98-.09.98-.09h1.18s.88.09.88.09h16.49l1.57-.08h4.12l2.16.08h25.02l.49-.05,2.75.05h7.65l.2-.34,1.18.34h16.39l.59-.15,1.86-.04-.29.19h5.59l1.77-.09,2.35.09h2.45c3.34,0,7.36.16,7.36.43v.12h3.04v-.64l-.98-.19.39-.09-8.24-.05-15.41-.22-37.19-.35,25.61.13,8.24.13,23.75.23,3.53.03.29-.08v-.5l-.98-.14.98-.06v-.67h-3.04v.12c0,.27-4.02.43-7.36.43h-9.81l-2.06.07-4.81-.07h-3.63l-2.35.03-2.26-.03h-7.46l-1.28.13-3.34-.13h-28.36c.1.18.1.28,0,.31l-1.18.36-.2-.19-.98-.21-.2-.18.2-.09h-12.46l-2.45.03-.39-.03h-2.36l-1.08.11h-3.92l-2.85-.08-2.16-.02-1.77.11-.49-.11h-10.79l-3.24.08-2.94-.08h-6.87c-3.34,0-7.36-.16-7.36-.43v-.12H0v.38l1.37.17-1.37.11v1.25l1.37.03-.49.26-.88.14v.12h3.04v-.12Z"/>
      <path class="cls-1" d="m174.66.54l-.04-.08s.03-.04.1-.05l.1.06v.05l-.09.03h-.06Z"/>
      <path class="cls-1" d="m174.45,1.03l-.03-.06v-.06l.06-.03s.05.02.06.06l-.03.08h-.06Z"/>
      <path class="cls-1" d="m175.07.85l-.03-.08.03-.06h.13s.01,0,.01,0c.01,0,.03.01.05.02.02,0,.03.02.04.04,0,.02-.01.03-.03.05-.02.02-.04.03-.05.05-.01,0-.03.02-.04.02l-.11-.03Z"/>
      <path d="m185.56,13.36l-.11-.02-.08-.09s-.07-.02-.11-.02l-.08.03-.02-.03c-.1.01-.17.04-.22.09-.05.05-.08.11-.08.16,0,.05.02.11.05.16.03.05.05.09.05.12,0,.1-.07.19-.21.25-.14.07-.31.1-.5.1-1.08,0-2.25-.21-3.51-.62h-.1s-.11-.02-.11-.02l-.08-.07-.06-.02h-.14l-.08-.07c-.81-.3-1.63-.68-2.47-1.14h-.06v-.03s-.15-.08-.15-.08l-.15-.04-.07-.09c-.05-.03-.12-.07-.22-.13h-.13v-.08l-.21-.14-.07-.02-.14-.1-.18-.06-.11-.15c-.37-.26-.7-.51-1.01-.74.02-.02.05-.04.08-.06v-.06s.07-.08.07-.08l.12-.02.06-.06.05-.07.09-.05c.36-.31.69-.62.98-.92l.05-.14c.11-.06.16-.09.16-.09l.04-.13.12-.1.07-.02.08-.09v-.06s.03-.08.03-.08h.09s.05-.11.05-.11l.15-.14s.08-.09.14-.17v-.07s.07-.02.07-.02c.55-.75.95-1.46,1.18-2.15l-.08-.11.07-.11.09-.07s0-.01,0-.03l-.05-.1.09-.05c.09-.39.13-.74.14-1.08,0-.29-.04-.6-.11-.93l-.04-.05-.05-.1.02-.13-.09-.1v-.17l-.06-.12-.08-.09.04-.04c-.27-.6-.65-1.12-1.14-1.55l-.11.03c-.02.11-.03.25-.04.41l-.03-.16-.02-.38-.03-.05v-.07c-.05-.02-.08-.04-.09-.06h-.11s-.1-.03-.1-.03v-.11s-.05-.03-.06-.04h-.07s-.14-.09-.14-.09l-.11-.09-.04-.03-.16-.02-.03-.06c-.48-.2-.99-.3-1.53-.3-.2,0-.41.01-.63.04l-.12.1h-.2s-.14.06-.14.06l-.14.07c-.08-.02-.13-.03-.16-.03l-.08.1-.08.06-.1-.05c-.61.27-1.13.68-1.56,1.23v.1l-.15.11-.03.13-.05.13-.11.04-.02.04v.1l-.04.08-.06.03-.03.07v.05l-.05.14-.05.07-.04.11v.1s-.04.03-.04.03c-.15.46-.22.94-.22,1.46,0,.24.02.49.06.74l.03.04v.07s0,.1,0,.1l.08.13v.1s-.01.03-.01.03c0,.03.02.07.03.14l.05.03.06.07-.06.05c.07.21.13.37.18.48l.06.05-.02.04c.26.58.63,1.18,1.11,1.8l.12.08.03.11.13.15.13.05-.03.07.1.11.13.11.09.13.17.08.03.15c.43.44.9.86,1.41,1.27l-.63.47-.04.04-.13.15h-.09s0,.08,0,.08l-.1.05-.1.03-.07.02c-.78.51-1.57.96-2.38,1.34l-.03.06-.14.05h-.08c-.06.03-.1.05-.13.07l-.02.05h-.07c-.8.34-1.58.61-2.33.81l-.16.11-.19-.02-.13.06h-.21s-.11.04-.2.05l-.02.02-.08.04-.05-.04c-.24.04-.43.07-.57.08l-.12.08-.19-.06c-.25.02-.49.03-.73.03-.19,0-.36-.03-.5-.1-.14-.07-.21-.15-.21-.25,0-.03.02-.07.05-.12.03-.05.05-.1.05-.16,0-.07-.04-.13-.11-.18-.07-.05-.16-.08-.28-.08-.1,0-.2.03-.28.09-.08.06-.12.14-.12.24,0,.21.13.39.4.54.27.15.6.23.99.23,1.18,0,2.47-.24,3.86-.71l.16-.1h.09c.06-.01.1-.03.13-.03l.06-.05h.08c.85-.32,1.69-.71,2.53-1.18l.12-.09.17-.08.11-.12.14-.03c.61-.37,1.2-.77,1.78-1.21.14.11.3.23.49.36l.18.07.03.09.08.06h.11s.03.1.03.1c.65.44,1.33.84,2.02,1.2l.14.05.18.08.14.09c.05.02.11.05.16.08h.06s.11,0,.11,0v.08s.12.05.12.05l.21.06.15.09.2.02.1.11c.89.36,1.77.63,2.62.81h.2l.09.06.1.02.09-.05.08.07c.54.09,1.07.14,1.58.14.32,0,.6-.05.85-.16l.06-.07.11-.08.11-.03.06-.12.09-.03c.06-.09.09-.18.09-.27s-.03-.16-.08-.21Zm-10.83-3.22l-.09-.03-.08-.05-.08-.13-.15-.08-.07-.07v-.05s-.18-.12-.18-.12l-.06-.06v-.04c-.9-.86-1.61-1.74-2.13-2.62l-.14-.06v-.22c-.43-.8-.64-1.56-.64-2.26,0-.44.1-.86.3-1.27s.5-.75.91-1.03l.06-.06.13-.09.11-.03v-.12s.25,0,.25,0c.1-.05.2-.09.29-.12l.04-.04h.03c.13-.03.25-.06.35-.08.06-.02.12-.03.18-.04l.11-.12.26.02c.03-.07.05-.25.08-.54l.03.16.02.38v.03c.21-.02.45-.03.69-.03.67,0,1.28.1,1.8.3l.29.03.11.15c.56.28.99.65,1.29,1.11.3.46.44.92.44,1.38,0,.65-.19,1.36-.56,2.12v.16s-.11.06-.11.06l-.03.06v.1s-.1.07-.1.07c-.18.3-.4.62-.65.96v.09s-.13.07-.13.07v.08s-.11.05-.11.05c-.13.16-.2.25-.22.28v.03h-.04c-.22.25-.34.38-.37.41v.08s-.11.04-.11.04c-.43.45-.93.91-1.49,1.36l-.25-.2Z"/>
      <path d="m166.24,6.25v-.02c0-.22,0-.43-.04-.64h-.05v-.15s-.06-.03-.06-.03v-.08s-.05-.08-.05-.08l.02-.11-.04-.06.02-.03.04-.02c-.16-.59-.44-1.13-.83-1.63l-.11-.04v-.09s-.09-.06-.09-.06l-.06-.1v-.02s-.02-.02-.02-.02h-.08s-.02-.05-.02-.05v-.07s-.03-.02-.03-.02h-.06s-.07-.07-.07-.07l-.02-.08-.09-.05-.02-.05c-.06-.06-.11-.1-.15-.12l.19.42.46,1.08.28.52.42.77.17.26.29.62Zm-4.51-1.02l.05-.09.07-.07s.02-.05.04-.09v-.03s.02-.02.02-.02c.05-.14.08-.29.08-.45,0-.41-.14-.74-.43-.98l-.12-.06-.03-.05c-.25-.16-.53-.25-.84-.26l-.02.03-.03-.02h-.05s-.02-.01-.04-.01c-.02,0-.03,0-.04,0l-.03.02-.1.03-.06-.03c-.18.04-.35.1-.49.19-.15.09-.26.21-.33.35v.02s-.05.1-.05.1c0,.01-.02.03-.02.05l.02.05v.05s-.05.04-.05.04v.04l.02.04v.14c.02.19.11.34.26.46.15.12.33.18.52.18.09,0,.16-.02.23-.05v-.05s.09-.03.09-.03l.05-.09.02-.02s0-.02,0-.04c0-.06-.02-.1-.05-.13h-.02s-.03-.02-.03-.02h-.02s-.02-.03-.02-.03c-.02,0-.04,0-.05,0-.06,0-.1.01-.13.04-.03.03-.05.06-.06.09,0,.03-.02.06-.05.09-.03.03-.07.04-.13.04-.13,0-.24-.05-.34-.15-.1-.1-.15-.23-.15-.39s.05-.3.16-.44v-.04s.03,0,.03,0c.1-.11.23-.2.39-.27s.33-.1.52-.1c.26,0,.5.06.71.17.21.11.37.26.48.46h.05v.08c.07.16.11.34.11.52,0,.17-.05.34-.14.51-.09.17-.21.32-.37.45-.16.13-.36.24-.6.33-.24.08-.5.13-.77.13-.37,0-.71-.1-1.01-.3-.3-.2-.54-.47-.7-.8l-.12-.03s-.14-.03-.38-.04l.11-.02h.24s.12,0,.12,0c-.12-.28-.19-.58-.19-.89,0-.21.03-.42.1-.63l-.07-.05.11-.05c.14-.34.37-.64.67-.9l.03-.05.06-.02c.43-.33.94-.52,1.51-.59l.23-.16c-.34.02-.69.06-1.05.14l-.03.04h-.07s-.06,0-.06,0l-.05.02-.1.03h-.03s-.03,0-.05.01l-.02.06h-.06s-.06-.01-.06-.01c-.01,0-.03,0-.04.01l-.03.05-.09.05h-.08s-.07.06-.07.06h-.07c-.24.12-.45.26-.63.41v.04l-.05.03h-.03c-.15.14-.27.28-.38.42v.04s-.06.05-.06.05v.02s-.03.08-.03.08l-.06.1h-.03s0,.02,0,.02l.02.07v.04s-.07.05-.07.05l.03.07-.04.09-.05.06v.1s-.05.05-.05.05c-.02.08-.02.17-.02.25v.04h.11l-.1.04c0,.19.04.37.09.53l.09.03v.05s-.05.02-.05.02c.06.15.14.29.24.43h.07s.02.1.02.1l.09.06.07.09v.04h.01s.06.02.06.02l.05.02.02.08h.08s.07.05.07.05l.03.08.09.04.02.05c.38.23.8.37,1.28.43h.09s.09.01.09.01l.02-.02.07-.03.1.05.09-.04.1.03h0c.28-.02.56-.08.82-.2.26-.11.48-.26.65-.45v-.11s.09-.03.09-.03Zm2.7,4.78c.27-.22.52-.46.75-.72l-.02-.04.04-.03.04-.02s.01-.01.02-.03c0-.01.02-.02.02-.02v-.04s.04-.08.04-.08l.07-.05.02-.09.08-.06h.01c.1-.14.18-.29.26-.46l-.06-.02.04-.03.05-.03c.05-.1.09-.2.12-.3l-.02-.03.03-.04.03-.02s.02-.06.03-.08l-.02-.03.03-.08.04-.07v-.09s.05-.07.05-.07c.08-.33.13-.66.15-.99l-.04-.11.02-.09-.53-1.01-.31-.49-.51-1.07-.36-.74-.15-.44c-.29-.23-.63-.44-1.01-.62h-.08s-.06-.06-.06-.06l-.1-.02-.11-.06-.06-.02-.05.03-.04-.04-.03-.04-.05-.02h-.05s-.14,0-.14,0v-.06s-.05-.01-.05-.01h-.07s-.03-.03-.03-.03c-.46-.13-.94-.2-1.45-.21l-.05.03-.06-.04h-.02l-.08.04h-.07s-.04-.03-.04-.03l-.19.14c.13-.01.25-.02.37-.02.68,0,1.33.17,1.97.5.64.33,1.17.79,1.6,1.38h.07s0,.02,0,.02l-.02.05c.57.81.85,1.74.85,2.79l.02.02v.06s-.02.06-.02.06l.13.03s.14.03.38.04h-.11s-.25.02-.25.02h-.14s0,.05,0,.05l-.03.02s0,.06,0,.1v.02s.02.05.02.05l-.03.02-.02.16v.04s-.02.08-.02.08l.03.08-.06.07c-.14.7-.42,1.34-.83,1.91l.02.05-.04.06-.09.05.03.07-.1.06h-.06s-.03.05-.03.05l.05.02-.06.02-.02.03-.03.02h-.03s-.03.04-.03.04v.03s-.09.1-.09.1l-.04.05-.08.08-.11.06c-.51.46-1.08.79-1.71,1.01.03.01.16.02.38.04h-.11s-.25.02-.25.02l-.16-.02c-.51.16-1.03.23-1.56.23-.94,0-1.82-.11-2.62-.33h-.06s-.01-.02-.01-.02l-.09-.02-.03.02-.09-.06c-.09-.03-.15-.05-.17-.06h-.03s0-.01,0-.01c-.07-.02-.17-.06-.32-.11h-.06s-.04-.04-.04-.04c-.56-.22-1.09-.48-1.61-.78-.51-.3-1.05-.65-1.6-1.05h0s-.1-.04-.1-.04l-.04-.06s0,0-.02-.01l-.07.03-.07-.09v-.04s-.07-.04-.07-.04h-.04s-.06-.02-.06-.02v-.05s-.04-.03-.04-.03h-.02l-.09-.05-.07-.06h-.1s-.05-.13-.05-.13c-.84-.63-1.47-1.07-1.87-1.33h-.04s-.11-.09-.11-.09c-.56-.34-1.09-.58-1.57-.73h-.1s-.07-.05-.07-.05c0,0,0,0-.01,0h-.1s-.05-.02-.05-.02l-.05-.02h-.06s-.05,0-.05,0l-.05-.02-.04-.02h-.06s-.01,0-.01,0l-.1-.02-.07-.02s-.02,0-.03,0l-.09.02-.04-.03c-.17-.02-.31-.02-.44-.02-.38,0-.75.05-1.13.15-.38.1-.71.24-1.02.42l-.02.03-.06.03s-.02.01-.02.01v.07s-.1.05-.1.05h-.07s-.02.02-.02.02l-.02.07-.03.03h-.09v.07l-.07.07v.87s-.05-.83-.05-.83l-.03.02-.02.07h-.05s-.07.05-.07.05c-.13.17-.22.34-.28.52l.06.03-.07.03c-.04.15-.06.29-.06.44,0,.19.03.37.08.55h.05s.02.12.02.12v.04s.01.06.01.06l.05.02.04.04-.03.06.02.04h.02s.06.09.06.09v.02c.08,0,.18.02.29.02h-.11s-.16.02-.16.02v.02s.02.01.02.01l.08.05v.05c.05.07.14.16.25.25l.06-.02v.07c.46.37,1.02.6,1.69.68l.02-.02.11.03s.03,0,.05,0c.01,0,.03,0,.05,0,.02,0,.03,0,.04,0l.06-.02.02.03s.08,0,.18,0c.19,0,.37-.03.55-.08l.05-.05h.1s0-.08,0-.08l.13-.03h.06s0,0,.02,0c0,0,.01,0,.02,0v-.03s.02,0,.03,0c.01,0,.02,0,.02,0,.19-.15.3-.32.34-.53l-.03-.1.04-.06v-.03l-.05-.04.03-.07c-.04-.18-.13-.33-.28-.44-.15-.11-.32-.17-.51-.17,0,0-.02,0-.03,0-.01,0-.02,0-.02,0l-.05.03-.04.03h-.09s-.03.06-.03.06l-.06.02s-.06.1-.06.15c0,.05.02.1.06.14.04.04.08.05.14.05.03,0,.04,0,.05,0v-.03s.05.01.05.01c.02-.01.05-.03.06-.06s.03-.06.04-.08c0-.02.03-.05.06-.07.03-.02.06-.03.11-.03.06,0,.12.01.18.04h.03s.08.03.08.03l.02.05s.03.03.05.04l.05.02.03.05v.05c.05.08.07.17.07.26,0,.1-.02.19-.07.29h0s-.02.02-.02.02c-.01.03-.03.06-.06.09l-.02.05-.03.03-.05.02c-.17.17-.4.27-.68.32l-.03.02-.07.02-.03-.02c-.07,0-.12,0-.16,0-.16,0-.32-.01-.48-.04h-.09s-.08,0-.08,0l-.07-.05-.09-.03h0s-.1-.05-.18-.08h-.02s-.02-.02-.02-.02l-.14-.07-.12-.02v-.07s-.03-.02-.03-.02l-.06-.03-.06-.02-.02-.05c-.17-.16-.3-.35-.4-.56l-.03-.02v-.03s0-.02,0-.02c-.06-.14-.1-.29-.13-.45l-.03-.07-.07-.08.06-.08v-.1s0-.09,0-.09c0,0,0-.02,0-.04,0-.02,0-.03,0-.04l-.03-.03.02-.05.02-.02s0-.03,0-.05,0-.04,0-.05l-.02-.02v-.1s.03-.06.03-.06l-.03-.08.04-.04.04-.06c.1-.38.3-.7.61-.96-.07,0-.17-.02-.3-.03h.11s.19-.02.19-.02h.07c.08-.07.18-.13.27-.19l.03-.04.05-.03.08-.02c.18-.08.37-.15.58-.19l.14-.07.07.04c.11-.01.21-.02.32-.02h0s.03,0,.03,0h.01c.07,0,.11,0,.15,0l.08-.02.08.03s.01,0,.03,0h.03l.05-.02.05.02.06.02c.32.03.64.1.98.21h.06s.08.02.08.02l.07.05c.63.23,1.39.67,2.26,1.31l.09.02.02.06s0,.01.02.02c.01,0,.02.01.02.01h.05s.04.07.04.07l.03.02c.12.09.34.25.66.5.31.24.59.45.83.62.24.18.48.34.71.5h.1s.04.09.04.09l.09.04.09.07v.02s.04.02.04.02l.06-.02.03.04.03.06h.02s.06,0,.06,0l.06.05.07.06.09.03.06.08c.38.22.74.41,1.08.57h.08s.03.05.03.05c0,0,0,0,.01,0h.09s.05.04.05.04l.03.03c.51.21,1.01.38,1.49.49l.07-.02.07.06s.01,0,.03,0h.07l.12.03h0s.04.02.04.02l.1-.02.06.05s.01,0,.02,0l.06-.03.17.05h.08s.05.02.05.02l.05.03c.35.05.81.07,1.4.07.08,0,.19,0,.34,0l.03-.02.04.02.33-.02.07-.03.04.02s.05,0,.07,0l.04-.02.09-.03.07.02.08-.04.1.02c.37-.06.75-.15,1.12-.28l.03-.05h.07s.06-.01.08-.02l.03-.02.12-.04.05-.02v-.05s.06,0,.06,0h.06s.05-.01.05-.01l.02-.04.1-.04.07-.02.07-.06h.1c.24-.14.48-.29.7-.46h-.03s-.14-.04-.38-.05h.11s.25-.02.25-.02h.13Z"/>
      <path d="m304.57,7.51c-.69.01-1.18,0-1.47-.02v-.06l.88-.04h1.18s.29.04.29.04l-.88.08m7.26.45c-.39-.06-.39-.1,0-.11l1.47-.02.69.04.2.1-.79.03-1.57-.04Zm-4.12.32c-.29,0-1.28-.02-1.47-.04h-.29s-.78-.13-.78-.13l.29-.18,1.47-.03,1.57.18c0,.11-.29.16-.78.19m39.25.79h3.04s0-.12,0-.12l-.88-.14-.49-.26,1.37-.03v-1.25s-1.37-.11-1.37-.11l1.37-.17v-.38s-3.04,0-3.04,0v.12c0,.27-4.02.43-7.36.43h-6.87s-2.94.08-2.94.08l-3.24-.08h-10.79s-.49.11-.49.11l-1.77-.11-2.16.02-2.85.08h-3.92s-1.08-.11-1.08-.11h-2.36s-.39.03-.39.03l-2.45-.03h-12.46s.2.09.2.09l-.2.18-.98.21-.2.19-1.18-.36c-.1-.03-.1-.14,0-.31h-28.36s-3.34.13-3.34.13l-1.28-.13h-7.46s-2.26.03-2.26.03l-2.35-.03h-3.63s-4.81.07-4.81.07l-2.06-.07h-9.81c-3.34,0-7.36-.16-7.36-.43v-.12s-3.04,0-3.04,0v.67s.98.06.98.06l-.98.14v.5s.29.08.29.08l3.53-.03,23.75-.23,8.24-.13,25.61-.13-37.19.35-15.41.22-8.24.05.39.09-.98.19v.64s3.04,0,3.04,0v-.12c0-.27,4.02-.43,7.36-.43h2.45s2.35-.09,2.35-.09l1.77.09h5.59s-.29-.19-.29-.19l1.86.04.59.15h16.39s1.18-.34,1.18-.34l.2.34h7.65s2.75-.05,2.75-.05l.49.05h25.02s2.16-.08,2.16-.08h4.12s1.57.08,1.57.08h16.49s.88-.08.88-.08h1.18s.98.07.98.07h.59s9.32.01,9.32.01h.78s1.18-.06,1.18-.06l1.08-.44.69-.2c-.1.28,0,.48.1.62h2.85s2.45.08,2.45.08h7.07c2.06,0,3.83.04,5.4.13l1.08-.02v.05l-.2.04c.69.06,1.08.14,1.08.23v.12Z"/>
      <path class="cls-2" d="m184.05,5.63l.17-.26.42-.77.28-.52.46-1.08.19-.42s-.09.07-.15.12l-.02.05-.09.05-.02.08-.07.06h-.06s-.02.03-.02.03v.07s-.02.05-.02.05h-.08s-.02.02-.02.02v.02s-.06.1-.06.1l-.08.06v.09s-.12.04-.12.04c-.39.5-.66,1.04-.83,1.63l.04.02.02.03-.04.06.02.11-.04.08v.08s-.08.03-.08.03v.08s.01.05.01.05h-.05c-.03.22-.05.43-.05.65v.02s.3-.62.3-.62Z"/>
      <path class="cls-2" d="m188.36,5.26v.11c.18.19.39.34.66.45.26.11.54.18.82.2h0s.1-.04.1-.04l.09.04.1-.05.07.03.02.02.09-.03h.09c.47-.04.89-.19,1.28-.42l.02-.05.09-.04.03-.08.07-.05h.08s.02-.09.02-.09l.05-.02h.06s.01-.02.01-.02v-.04l.07-.09.09-.06.02-.08h.07c.1-.16.18-.3.24-.45l-.04-.02v-.05s.08-.03.08-.03c.05-.16.09-.34.09-.53l-.1-.04h.11s0-.04,0-.04c0-.08,0-.17-.02-.25l-.04-.05v-.1s-.05-.06-.05-.06l-.04-.09.03-.07-.07-.05v-.04s.01-.07.01-.07h0s-.03-.02-.03-.02l-.06-.1-.02-.08v-.02s-.07-.05-.07-.05v-.04c-.1-.14-.22-.28-.37-.41h-.03s-.05-.04-.05-.04v-.04c-.18-.15-.39-.28-.63-.41h-.07l-.07-.06h-.08s-.09-.04-.09-.04l-.03-.05s-.03-.01-.04-.01h-.06s-.06.01-.06.01l-.02-.06s-.03-.01-.05-.02h-.03s-.1-.03-.1-.03l-.05-.02-.06-.02h-.07s-.03-.03-.03-.03c-.35-.08-.7-.13-1.05-.14l.23.16c.57.07,1.08.26,1.51.59l.06.02.03.05c.3.25.53.55.67.9l.11.05-.07.05c.07.21.1.42.1.63,0,.31-.06.61-.19.89h.12s.24,0,.24,0l.11.02c-.24.01-.37.03-.38.04l-.12.03c-.16.33-.4.6-.7.8-.3.2-.64.3-1.01.3-.28,0-.53-.04-.77-.13-.24-.08-.44-.19-.6-.33-.16-.13-.28-.28-.37-.45-.09-.17-.14-.34-.14-.51,0-.19.04-.36.11-.52v-.08s.04,0,.04,0c.11-.19.27-.35.48-.46.21-.11.44-.17.71-.17.19,0,.36.03.52.1s.29.16.39.27h.03v.04c.1.14.16.28.16.44s-.05.29-.15.39c-.1.1-.21.15-.34.15-.06,0-.1-.01-.13-.04-.03-.03-.05-.06-.05-.09,0-.03-.03-.06-.06-.09-.03-.03-.08-.04-.13-.04-.02,0-.03,0-.05,0l-.02.04h-.02s-.03,0-.03,0h-.02s-.05.09-.05.14c0,.02,0,.03,0,.04l.02.02.05.09.09.03v.05c.07.03.14.05.23.05.2,0,.37-.06.52-.18.15-.12.24-.27.28-.46v-.06s-.01-.08-.01-.08l.02-.04v-.04s-.04-.04-.04-.04v-.05s.02-.05.02-.05c0-.02-.01-.04-.02-.05l-.05-.1v-.02c-.08-.14-.19-.26-.34-.35-.15-.09-.31-.16-.49-.19l-.06.03-.1-.03-.03-.02s-.02,0-.04,0c-.02,0-.03,0-.04,0h-.05s-.03.03-.03.03l-.02-.03c-.31.01-.59.1-.84.26l-.03.05-.12.06c-.29.25-.43.58-.43.98,0,.16.03.31.08.45l.03.02v.03s.02.07.03.09l.07.07.05.09.09.03Z"/>
      <path class="cls-2" d="m185.7,9.99h.25s.11.02.11.02c-.24.01-.37.03-.38.04h-.03c.23.18.46.33.7.46h.1s.07.08.07.08l.07.02.1.04.02.04.05.02h.06s.05,0,.05,0v.05s.06.02.06.02l.12.04.03.02s.04.01.08.03h.07s.03.03.03.03c.38.13.75.22,1.12.28l.1-.02.08.04.07-.02.09.03.04.02s.04,0,.07,0l.04-.02.07.03.33.02.04-.02.03.02c.15,0,.26,0,.34,0,.58,0,1.05-.02,1.4-.07l.05-.03.05-.02h.08s.17-.05.17-.05l.06.03s.02,0,.02,0l.06-.05.1.02h.04s0-.02,0-.02l.12-.03h.07s.03,0,.03,0l.07-.06.07.02c.48-.12.98-.28,1.49-.49l.03-.03.05-.04h.09s0,0,.01,0l.03-.06h.08c.34-.15.7-.34,1.08-.56l.06-.08.09-.03.07-.06.06-.05h.06s.02,0,.02,0l.03-.06.03-.04.06.02.03-.02v-.02s.1-.07.1-.07l.09-.04.04-.09h.1c.24-.16.47-.33.71-.51.24-.18.52-.38.83-.62.31-.24.53-.41.66-.5l.03-.02.04-.06h.05s.01-.02.02-.02c.01,0,.02-.01.02-.02l.02-.06.09-.02c.88-.64,1.63-1.07,2.26-1.31l.07-.05h.08s.06-.02.06-.02c.33-.11.66-.18.98-.21l.06-.02.05-.02.05.02h.03s.02,0,.03,0l.08-.03.08.02s.08,0,.15,0h.01s.03-.01.03-.01h0c.11.01.21.02.32.04l.07-.04.14.07c.21.04.4.11.58.19l.08.02.05.03.03.04c.1.06.19.12.27.19h.26s.11.02.11.02c-.13,0-.23.02-.3.03.31.26.51.59.61.96l.04.06.04.04-.03.08.04.06v.1s-.02.02-.02.02c0,0,0,.02,0,.05s0,.04,0,.05l.02.02.02.05-.03.03s0,.02,0,.04c0,.02,0,.03,0,.04l.02.09v.1s.05.08.05.08l-.07.08-.03.07c-.03.15-.07.3-.13.45l.02.02v.03s-.05.02-.05.02c-.1.22-.23.41-.4.56l-.02.05-.06.02-.06.03-.02.02v.07s-.13.02-.13.02l-.14.07-.02.02h-.02c-.08.03-.14.06-.18.07h0s-.09.04-.09.04l-.07.05h-.08s-.09,0-.09,0c-.16.03-.32.04-.48.04-.04,0-.09,0-.16,0l-.03.02-.07-.02-.03-.02c-.28-.05-.5-.16-.68-.32l-.05-.02-.03-.03-.02-.05s-.05-.07-.06-.09h-.02s0-.02,0-.02c-.05-.1-.07-.19-.07-.29,0-.09.02-.17.06-.26v-.05s.04-.05.04-.05l.05-.02s.03-.03.05-.04l.02-.05.08-.03h.03c.06-.03.12-.04.18-.04.05,0,.08,0,.11.03.03.02.05.04.06.07,0,.03.02.05.04.08s.04.05.06.06h.04s.01.02.01.02c0,0,.03,0,.05,0,.06,0,.1-.02.14-.05.04-.04.06-.08.06-.14s-.02-.11-.06-.15l-.06-.02-.03-.05h-.09s-.04-.03-.04-.03l-.05-.03s-.01,0-.02,0c-.01,0-.02,0-.03,0-.19,0-.36.06-.51.17-.15.11-.24.26-.28.44l.03.07-.05.04v.03s.04.06.04.06l-.03.1c.04.2.15.38.34.53,0,0,.01,0,.02,0,.01,0,.02,0,.02,0v.03s.02,0,.03,0c0,0,.01,0,.02.01h.06s.13.02.13.02v.08s.11,0,.11,0l.05.05c.18.05.36.08.55.08.1,0,.15,0,.18,0l.02-.03.06.02s.02,0,.04,0c.02,0,.04,0,.05,0,.02,0,.03,0,.05,0l.11-.03.02.02c.67-.08,1.23-.31,1.68-.68v-.07s.06.02.06.02c.11-.1.19-.18.25-.25v-.05s.07-.05.07-.05h.01s0-.03,0-.03h-.16s-.11-.02-.11-.02c.11,0,.21-.02.29-.02v-.02s.06-.08.06-.08h.02s.02-.04.02-.04l-.03-.06.04-.04.05-.02.02-.06v-.04s0-.11,0-.11h.05c.06-.19.08-.37.08-.55,0-.15-.02-.3-.06-.44l-.07-.03.06-.03c-.06-.17-.15-.35-.28-.52l-.07-.04h-.05s-.02-.08-.02-.08l-.03-.02-.06.83v-.87s-.05-.07-.05-.07v-.06s-.09-.01-.09-.01l-.03-.03-.02-.07-.02-.02h-.07s-.11-.05-.11-.05v-.07s0,0-.01-.01l-.06-.03-.02-.03c-.3-.18-.64-.32-1.02-.42-.37-.1-.75-.15-1.13-.15-.12,0-.27,0-.44.02l-.04.03-.09-.02s-.02,0-.03,0l-.07.02-.1.02h-.01s-.06,0-.06,0l-.04.02-.05.02h-.05s-.06,0-.06,0l-.05.02-.05.02h-.1s0,0-.01,0l-.07.05h-.1c-.49.15-1.01.39-1.57.73l-.11.1h-.04c-.41.24-1.03.69-1.87,1.32l-.05.11h-.1s-.07.08-.07.08l-.09.05h-.02l-.05.03v.05s-.06.01-.06.01h-.04s-.06.05-.06.05v.04s-.08.09-.08.09l-.07-.03s-.02.01-.02.01l-.04.06-.1.04h0c-.55.39-1.09.74-1.6,1.05-.51.3-1.05.56-1.61.78l-.04.05h-.06c-.14.04-.25.08-.32.1h0s-.03.01-.03.01c-.02.01-.08.03-.17.06l-.09.06-.03-.02-.09.02h-.01s-.06.02-.06.02c-.8.22-1.68.33-2.62.33-.53,0-1.05-.08-1.56-.23l-.16.02h-.25s-.11-.02-.11-.02c.21-.02.34-.03.38-.04-.64-.22-1.21-.56-1.71-1.01l-.11-.06-.08-.08-.04-.05-.09-.1v-.03s-.02-.03-.02-.03h-.03s-.03-.03-.03-.03l-.02-.03-.06-.02.05-.02-.03-.04h-.06s-.1-.07-.1-.07l.03-.07-.09-.05-.04-.06.02-.05c-.41-.57-.69-1.21-.83-1.91l-.06-.07.03-.08-.03-.08v-.04s0-.16,0-.16l-.03-.02v-.05s.02-.02.02-.02c0-.04,0-.07,0-.1l-.03-.02v-.07s-.14.01-.14.01h-.25s-.11-.02-.11-.02c.24-.02.36-.03.38-.04l.13-.03-.02-.06v-.06s.03-.02.03-.02c0-1.05.28-1.98.85-2.79l-.02-.05v-.03s.07,0,.07,0c.43-.59.96-1.05,1.6-1.38.64-.33,1.29-.5,1.97-.5.11,0,.23,0,.37.02l-.19-.14-.04.04h-.07s-.08-.04-.08-.04h-.02l-.06.04-.05-.03c-.51.01-.99.08-1.45.21l-.03.03h-.07s-.03.01-.03.01v.06s-.15.01-.15.01h-.05s-.05,0-.05,0l-.03.04-.04.04-.05-.03-.06.02-.11.06-.1.02-.06.07h-.08c-.38.18-.72.38-1.01.61l-.15.44-.36.74-.51,1.07-.31.49-.53,1.01.02.09-.04.11c.02.33.06.66.15.99l.05.07v.09s.03.07.03.07l.03.08-.02.03s.02.05.03.08l.03.02.03.04-.02.03c.03.1.08.2.12.3l.05.03.04.03-.06.02c.08.16.17.32.26.46h.01s.08.06.08.06l.02.09.07.05.05.08v.04s0,.01.01.02c.01.01.02.02.02.03l.04.02.04.03-.02.04c.23.26.47.51.75.72h.13Z"/>
    </g>
  </g>
</svg>