<?xml version="1.0" encoding="UTF-8"?>
<svg id="Layer_2" data-name="Layer 2" xmlns="http://www.w3.org/2000/svg" viewBox="0 0 57.55 33.82">
  <g id="Layer_1-2" data-name="Layer 1">
    <path d="m.07,19.71c.15-.47.24-.95.5-1.39.73-1.21,2.27-1.95,3.63-1.49.07.02.14.04.2.07.55.33,1.01.1,1.48-.21,1.14-.76,2.4-1.23,3.74-1.51.97-.2,1.94-.22,2.92-.18,1.05.05,2.04.34,3.03.63.43.13.87.3,1.27.54.44.27.49.22.5-.29.03-1.51-.16-3-.34-4.5-.16-1.26-.47-2.47-.9-3.65-.24-.66-.56-1.3-.98-1.87-.09-.13-.12-.1-.23,0-.82.68-1.74,1.09-2.82.82-.81-.2-1.51-.56-2-1.28-.51-.75-.73-1.54-.58-2.44.16-1.01.69-1.75,1.54-2.26.69-.41,1.44-.58,2.26-.4.99.21,1.73.73,2.21,1.63.08.16.24.19.4.19.84.02,1.67.11,2.47.34.97.28,1.92.62,2.82,1.11,1.52.84,2.83,1.94,4.01,3.19.73.77,1.37,1.62,1.97,2.51.44.66.89,1.3,1.26,2,.19.35.58.31.79-.04,1.12-1.84,2.32-3.62,3.87-5.14,1.17-1.14,2.46-2.1,3.92-2.83.98-.49,2.04-.81,3.12-1.02.5-.1,1.02-.15,1.53-.14.3,0,.44-.16.55-.35.56-.96,1.44-1.44,2.5-1.53,1.2-.1,2.47.52,3.1,1.7.77,1.44.4,2.95-.61,3.9-.87.81-1.92,1.17-3.15.76-.47-.16-.89-.36-1.26-.67-.16-.14-.26-.08-.34.05-.43.7-.8,1.43-1.07,2.21-.2.59-.35,1.18-.51,1.78-.19.7-.22,1.43-.34,2.14-.21,1.24-.15,2.5-.28,3.75-.02.15-.06.34.1.43.14.08.29-.05.42-.12.88-.46,1.82-.7,2.77-.94.88-.22,1.77-.27,2.66-.25,1.3.02,2.56.31,3.77.8.8.32,1.54.73,2.25,1.21.19.13.36.17.58.06.96-.48,1.94-.47,2.88,0,.87.44,1.43,1.13,1.7,2.1.23.81.11,1.57-.25,2.28-.43.84-1.12,1.4-2.05,1.67-.83.24-1.63.14-2.35-.25-.83-.45-1.43-1.14-1.62-2.1-.05-.26-.13-.42-.45-.4-1.48.1-2.68.71-3.61,1.87-.88,1.09-1.34,2.38-1.67,3.71-.27,1.1-.28,2.25-.37,3.37-.1,1.15-.17,2.31-.3,3.46-.09.77-.52,1.22-1.4.98-1.27-.35-2.57-.5-3.88-.59-5.8-.43-11.6-.13-17.4-.19-1.88-.02-3.75.12-5.62.39-.73.11-1.45.24-2.16.43-.54.14-1.02-.1-1.2-.81-.26-.99-.1-2-.27-2.99-.21-1.15-.1-2.34-.37-3.48-.19-.83-.39-1.65-.73-2.45-.32-.74-.69-1.44-1.22-2.05-.76-.86-1.72-1.36-2.84-1.58-.01,0-.02,0-.04,0-.77-.18-.88-.11-1.11.63-.27.86-.86,1.43-1.64,1.84-.78.4-1.58.43-2.39.19-.66-.2-1.16-.63-1.6-1.15-.42-.5-.54-1.12-.72-1.71v-.5Zm6.28-1.22c.13.02.16.03.2.03,1.34.05,2.6.34,3.75,1.06,1.09.69,1.86,1.66,2.5,2.75.6,1.02.93,2.14,1.19,3.28.1.46.23.92.26,1.4.04.67.14,1.33.18,2,.02.29.16.33.37.25.45-.17.92-.24,1.38-.33,1.1-.2,2.2-.39,3.3-.54.93-.13,1.87-.22,2.81-.31,1.38-.14,2.77-.16,4.16-.25,1.86-.12,3.72-.08,5.57.04,1.38.09,2.77.15,4.15.3,1.27.14,2.53.32,3.79.49.91.12,1.81.36,2.72.57.51.12.56.12.54-.38-.05-1.26.16-2.5.47-3.7.37-1.42.92-2.77,1.84-3.95.58-.75,1.28-1.34,2.08-1.81.69-.41,1.48-.61,2.28-.75.4-.07.82-.03,1.22-.18-.08-.14-.21-.14-.3-.2-.58-.42-1.24-.69-1.89-.96-.58-.24-1.21-.31-1.83-.42-1.11-.19-2.19-.08-3.28.11-.71.13-1.38.4-2.04.7-.71.32-1.41.66-2.04,1.09-1.12.77-2.18,1.63-3.13,2.61-.24.24-.77.28-1.05.11-.4-.26-.5-.58-.4-1.02.07-.3.31-.44.49-.62.76-.8,1.62-1.48,2.51-2.12.24-.17.36-.32.35-.62-.06-1.93-.01-3.85.29-5.76.12-.74.19-1.48.41-2.2.17-.55.3-1.11.5-1.66.22-.61.49-1.19.79-1.76.3-.58.71-1.07,1.12-1.57.05-.06.15-.11.09-.21-.05-.09-.15-.06-.23-.05-.81.09-1.61.21-2.38.46-.94.31-1.82.77-2.66,1.32-1.57,1.02-2.86,2.34-3.96,3.83-1.06,1.42-1.99,2.92-2.71,4.54-.19.42-.51.66-.97.67-.36,0-.7-.12-.86-.46-.62-1.27-1.29-2.51-2.08-3.68-1.09-1.63-2.35-3.1-3.9-4.31-1.06-.82-2.21-1.48-3.48-1.9-.76-.25-1.56-.33-2.35-.45-.07-.01-.18-.05-.22.05-.04.09.01.16.07.23.07.08.13.17.21.25.73.74,1.16,1.67,1.54,2.61.34.85.58,1.74.78,2.65.22.99.38,1.99.46,2.99.13,1.5.24,3.01.16,4.52-.01.24.07.39.28.53,1.02.68,1.93,1.49,2.79,2.36.34.34.39.65.23.97-.34.66-.99.77-1.52.24-.76-.75-1.58-1.44-2.44-2.07-.73-.54-1.52-.99-2.33-1.4-.83-.42-1.7-.74-2.61-.9-1.33-.23-2.65-.23-3.98.11-1.14.29-2.13.83-3.2,1.46Zm36.65,12.91c-.07-.06.14-.25-.12-.33-.89-.26-1.81-.4-2.72-.55-1.15-.19-2.3-.36-3.46-.49-1.56-.17-3.12-.35-4.68-.38-2.5-.05-5.01-.11-7.51.05-.81.05-1.63.09-2.43.18-1.02.11-2.04.22-3.06.38-1.43.22-2.87.45-4.27.81-.32.08-.1.36-.12.54-.02.19.13.19.28.16.9-.22,1.83-.31,2.75-.4,1.69-.15,3.4-.23,5.1-.22,5.3.03,10.6-.12,15.89.12,1.34.06,2.66.26,3.98.48.32.05.47.05.38-.37ZM3.39,21.43c.8.03,1.48-.66,1.47-1.5-.01-.8-.59-1.42-1.46-1.45-.81-.02-1.49.65-1.49,1.45,0,.85.72,1.56,1.47,1.5Zm50.83,0c.77,0,1.42-.7,1.48-1.48.04-.69-.82-1.53-1.52-1.48-.75.05-1.4.71-1.45,1.47-.04.69.83,1.62,1.5,1.49ZM12.68,2.01c-.9-.01-1.53.77-1.51,1.48.03.8.56,1.44,1.49,1.45.85,0,1.42-.62,1.45-1.46.03-.89-.84-1.48-1.43-1.46Zm30.77,1.44c0,.79.67,1.5,1.46,1.48.89-.01,1.45-.59,1.47-1.44.02-.84-.66-1.45-1.42-1.49-.8-.04-1.48.72-1.52,1.44Z"/>
  </g>
</svg>