<?xml version="1.0" encoding="utf-8"?>
<!-- Svg Vector Icons : http://www.onlinewebfonts.com/icon -->
<!DOCTYPE svg PUBLIC "-//W3C//DTD SVG 1.1//EN" "http://www.w3.org/Graphics/SVG/1.1/DTD/svg11.dtd">
<svg version="1.1" xmlns="http://www.w3.org/2000/svg" xmlns:xlink="http://www.w3.org/1999/xlink" x="0px" y="0px" viewBox="0 0 256 256" enable-background="new 0 0 256 256" xml:space="preserve">
<metadata> Svg Vector Icons : http://www.onlinewebfonts.com/icon </metadata>
<g><g><g><path fill="#000000" d="M126.1,10.7c-0.5,0.5-4.4,5.9-8.8,12.1c-4.9,6.8-8.3,11.1-8.7,10.9c-0.3-0.2-5.8-3.7-12.1-7.6c-6.4-3.9-12.1-7.2-12.8-7.2c-0.7,0-1.6,0.6-2,1.2c-0.5,0.7-2.1,7.3-3.8,14.5c-1.7,7.3-3.1,13.3-3.2,13.4c-0.1,0.1-6.6-0.8-14.6-2.1c-14.4-2.4-14.4-2.4-15.5-1.3c-1.1,1.1-1.1,1.1,1.3,15.5c1.3,7.9,2.3,14.5,2.1,14.6c-0.1,0.1-6.2,1.5-13.4,3.2c-7.3,1.7-13.8,3.4-14.5,3.8c-0.7,0.5-1.2,1.3-1.2,2.1c0,0.7,3.3,6.5,7.2,12.8c3.9,6.3,7.4,11.8,7.6,12.1c0.2,0.4-4.3,3.9-11.4,9c-6.5,4.6-11.9,8.8-12.1,9.4c-0.2,0.5-0.2,1.4,0.1,2c0.2,0.5,5.6,4.7,12.1,9.3l11.8,8.4l-3.7,6c-2.1,3.3-5.5,8.8-7.6,12.2c-2.1,3.4-3.8,6.7-3.8,7.4c0,0.7,0.6,1.6,1.3,2c0.7,0.5,7.3,2.1,14.6,3.8c9.1,2.1,13.4,3.3,13.4,3.8c0,0.4-1,7-2.3,14.6c-2.3,13.8-2.3,13.8-1.2,14.9c1.1,1.1,1.1,1.1,15.5-1.3c7.9-1.3,14.5-2.2,14.6-2.1c0.1,0.1,1.5,6.2,3.2,13.4c1.6,7.3,3.3,13.8,3.8,14.5c0.5,0.7,1.3,1.3,2,1.3s6.5-3.3,12.8-7.2c6.3-3.9,11.8-7.4,12.1-7.6c0.4-0.2,3.8,4,9,11.4c8.7,12.3,9.9,13.4,12,11.5c0.6-0.5,4.6-6,9-12.1c5.1-7.2,8.2-11.1,8.6-10.8c0.4,0.2,5.8,3.7,12.1,7.6c6.4,3.9,12.1,7.2,12.8,7.2s1.6-0.6,2-1.3c0.5-0.7,2.1-7.2,3.8-14.5c1.7-7.3,3.1-13.3,3.2-13.4c0.1-0.1,6.6,0.8,14.6,2.1c14.4,2.4,14.4,2.4,15.5,1.3s1.1-1.1-1.2-14.9c-1.3-7.6-2.3-14.2-2.3-14.6c0-0.5,4.2-1.7,13.4-3.8c7.3-1.7,13.9-3.4,14.6-3.8c0.7-0.4,1.2-1.3,1.2-2c0-0.7-2-4.4-4.4-8.3c-2.4-3.8-5.8-9.3-7.6-12.1l-3.2-5.2l11.1-7.9c6.1-4.3,11.6-8.4,12.1-9c1.9-2.1,0.8-3.3-11.5-12c-7.5-5.3-11.6-8.5-11.4-9c0.2-0.3,3.7-5.8,7.6-12.1c3.9-6.4,7.2-12.1,7.2-12.8c0-0.7-0.6-1.6-1.2-2.1c-0.7-0.4-7.3-2.1-14.5-3.8c-7.3-1.6-13.3-3-13.4-3.2c-0.1-0.1,0.8-6.6,2.1-14.6c2.4-14.4,2.4-14.4,1.3-15.5c-1.1-1.1-1.1-1.1-14.9,1.2c-7.6,1.3-14.2,2.3-14.6,2.3c-0.5,0-1.7-4.3-3.8-13.4c-1.7-7.3-3.4-13.9-3.8-14.6c-0.4-0.7-1.3-1.2-2-1.2c-0.7,0-4,1.7-7.4,3.8c-3.4,2.1-8.9,5.5-12.2,7.6l-6,3.7l-7.4-10.4c-4.1-5.7-8-11.1-8.8-12C128.9,9.8,127.4,9.5,126.1,10.7z M136.2,29.3c5.1,7.2,8.3,11.1,9.1,11.3c1,0.3,4.2-1.5,12.9-7c9.8-6.2,11.8-7.2,12.1-6.4c0.2,0.5,1.7,6.5,3.3,13.3c1.5,6.7,3.1,12.7,3.4,13c0.9,1.1,1.6,1.1,15.6-1.2c6.9-1.2,12.7-1.9,12.9-1.7c0.2,0.2-0.6,6-1.7,12.9c-2.3,14-2.4,14.7-1.2,15.6c0.4,0.3,6.3,1.9,13,3.4c6.8,1.6,12.7,3,13.2,3.3c0.8,0.3-0.3,2.4-6.4,12.1c-5.4,8.7-7.2,12-7,12.9c0.2,0.8,4.2,4,11.3,9.1c6,4.3,11,8,11,8.2c0,0.2-4.9,3.9-11,8.2c-7.1,5.1-11.1,8.3-11.3,9.1c-0.2,0.9,1.6,4.2,7,12.9c6.1,9.7,7.1,11.8,6.4,12.1c-0.6,0.2-6.5,1.7-13.3,3.3c-6.7,1.5-12.7,3.1-13,3.4c-1.1,0.9-1.1,1.6,1.2,15.6c1.2,6.9,1.9,12.7,1.7,12.9c-0.2,0.2-6-0.6-12.9-1.7c-14-2.3-14.7-2.4-15.6-1.2c-0.3,0.4-1.9,6.3-3.4,13c-1.6,6.8-3,12.8-3.3,13.3c-0.3,0.8-2.2-0.2-12.1-6.4c-8.8-5.5-12-7.3-12.9-7c-0.8,0.2-3.9,4.1-9.1,11.3c-4.3,6-8,11-8.2,11s-3.9-4.9-8.2-11c-5.1-7.1-8.3-11.1-9.1-11.3c-0.9-0.2-4.3,1.6-12.9,7c-9.7,6-11.8,7.1-12.1,6.4c-0.2-0.5-1.7-6.4-3.3-13.2c-1.5-6.7-3.1-12.7-3.4-13c-0.9-1.1-1.6-1.1-15.6,1.2c-6.9,1.2-12.7,1.9-12.9,1.7c-0.2-0.2,0.6-6,1.7-12.9c2.3-14,2.4-14.7,1.2-15.6c-0.4-0.3-6.3-1.9-13-3.4c-6.8-1.6-12.8-3-13.3-3.3c-0.8-0.3,0.2-2.2,6.4-12.1c5.5-8.8,7.3-12,7-12.9c-0.2-0.8-4.1-3.9-11.3-9.1c-6-4.3-11-8-11-8.3s5-3.9,11-8.2c7-5,11.1-8.3,11.3-9.1c0.2-0.9-1.5-4.2-7-12.9c-6.1-9.7-7.1-11.8-6.4-12.1c0.6-0.2,6.5-1.7,13.3-3.3c6.7-1.5,12.7-3.1,13-3.4c1.1-0.9,1.1-1.6-1.2-15.6c-1.2-6.9-1.9-12.7-1.7-12.9c0.2-0.2,6,0.6,12.9,1.7c14,2.3,14.7,2.4,15.6,1.2c0.3-0.4,1.9-6.3,3.4-13c1.6-6.8,3-12.8,3.3-13.3c0.3-0.8,2.2,0.2,12.1,6.4c8.9,5.6,12,7.3,12.9,7c0.8-0.2,4-4.2,9.1-11.3c4.3-6,8-11,8.2-11C128.2,18.4,131.9,23.3,136.2,29.3z"/></g></g></g>
</svg>