<?xml version="1.0" encoding="UTF-8"?>
<svg id="Layer_2" data-name="Layer 2" xmlns="http://www.w3.org/2000/svg" viewBox="0 0 21 21.21">
  <defs>
    <style>
      .cls-1 {
        fill: none;
        stroke: #000;
        stroke-miterlimit: 10;
      }
    </style>
  </defs>
  <g id="Layer_2-2" data-name="Layer 2">
    <path class="cls-1" d="m20.06,15.17c.15-.25.26-.5.33-.78.08-.27.11-.56.11-.86,0-.63-.17-1.32-.52-2.06-.34-.75-.9-1.58-1.68-2.5-.5-.6-1.05-1.23-1.66-1.89-.6-.66-1.26-1.37-1.96-2.13-.46-.5-.94-1-1.43-1.5-.49-.49-1-1.01-1.54-1.54l-1.22-1.2-1.22,1.2c-.63.62-1.19,1.18-1.69,1.69-.5.51-.93.96-1.3,1.35-.6.64-1.21,1.3-1.81,1.96-.6.66-1.2,1.35-1.79,2.07-.77.9-1.33,1.74-1.68,2.51-.34.77-.51,1.45-.51,2.05,0,1,.42,1.84,1.27,2.5.83.67,1.88,1.01,3.16,1.01.77,0,2.31-.14,3.12-.41.15-.04.29-.1.44-.16.14-.06.32-.14.53-.23-.02.12-.04.22-.06.32-.02.1-.04.19-.05.28-.26.99-1.5,2.9-1.5,2.9l-.6.93,7.45.02-.68-.95s-.67-.88-.91-1.36c-.24-.47-.44-.98-.58-1.51-.02-.1-.04-.2-.06-.31-.02-.11-.04-.22-.05-.33.2.09.38.16.54.23.16.06.31.12.46.16.81.27,2.05.41,2.8.41.54,0,1.33-.07,1.82-.2.49-.14.96-.36,1.43-.66.42-.29.76-.62,1.03-1.01"/>
  </g>
</svg>