<?xml version="1.0" encoding="UTF-8"?>
<svg id="Layer_2" data-name="Layer 2" xmlns="http://www.w3.org/2000/svg" viewBox="0 0 21.31 21.32">
  <defs>
    <style>
      .cls-1 {
        fill: none;
        stroke: #000;
        stroke-miterlimit: 10;
        stroke-width: .75px;
      }
    </style>
  </defs>
  <g id="Layer_2-2" data-name="Layer 2">
    <path class="cls-1" d="m10.37,1.08c-.36.52-.72,1.04-1.08,1.55-.94-.55-1.88-1.1-2.82-1.65l-.44-.26-.09.5c-.1.59-.2,1.18-.3,1.77h-2.85v2.68c-.52.09-1.04.18-1.56.27l-.5.09.26.44c.55.94,1.1,1.88,1.65,2.82-.52.36-1.04.72-1.55,1.08l-.42.29.42.29,1.55,1.08c-.55.94-1.1,1.88-1.65,2.82l-.26.44.5.09c.52.09,1.04.18,1.56.27v2.68h2.85c.1.59.2,1.18.3,1.76l.09.5.44-.26c.94-.55,1.88-1.1,2.82-1.65.36.52.72,1.04,1.08,1.55l.29.42.29-.42c.36-.52.72-1.04,1.08-1.55.94.55,1.88,1.1,2.82,1.65l.44.26.09-.5c.1-.59.2-1.18.3-1.76h2.44v-2.61c.66-.11,1.31-.23,1.97-.34l.5-.09-.26-.44c-.55-.94-1.1-1.88-1.65-2.82.52-.36,1.04-.72,1.55-1.08l.42-.29-.42-.29c-.52-.36-1.04-.72-1.55-1.08.55-.94,1.1-1.88,1.65-2.82l.26-.44-.5-.09c-.66-.11-1.31-.22-1.97-.34v-2.61h-2.44c-.1-.59-.2-1.18-.3-1.77l-.09-.5-.44.26c-.94.55-1.88,1.1-2.82,1.65l-1.08-1.55-.29-.42-.29.42Z"/>
  </g>
</svg>