<?xml version="1.0" encoding="UTF-8"?>
<svg id="Layer_2" data-name="Layer 2" xmlns="http://www.w3.org/2000/svg" viewBox="0 0 21.31 21.32">
  <defs>
    <style>
      .cls-1 {
        fill: #f79e00;
      }

      .cls-2 {
        fill: #f93500;
      }
    </style>
  </defs>
  <g id="Layer_2-2" data-name="Layer 2">
    <g>
      <path class="cls-2" d="m10.37,1.08c-.36.52-.72,1.04-1.08,1.55-.94-.55-1.88-1.1-2.82-1.65l-.44-.26-.09.5c-.1.59-.2,1.18-.3,1.77h-2.85v2.68c-.52.09-1.04.18-1.56.27l-.5.09.26.44c.55.94,1.1,1.88,1.65,2.82-.52.36-1.04.72-1.55,1.08l-.42.29.42.29,1.55,1.08c-.55.94-1.1,1.88-1.65,2.82l-.26.44.5.09c.52.09,1.04.18,1.56.27v2.68h2.85c.1.59.2,1.18.3,1.76l.09.5.44-.26c.94-.55,1.88-1.1,2.82-1.65.36.52.72,1.04,1.08,1.55l.29.42.29-.42c.36-.52.72-1.04,1.08-1.55.94.55,1.88,1.1,2.82,1.65l.44.26.09-.5c.1-.59.2-1.18.3-1.76h2.44v-2.61c.66-.11,1.31-.23,1.97-.34l.5-.09-.26-.44c-.55-.94-1.1-1.88-1.65-2.82.52-.36,1.04-.72,1.55-1.08l.42-.29-.42-.29c-.52-.36-1.04-.72-1.55-1.08.55-.94,1.1-1.88,1.65-2.82l.26-.44-.5-.09c-.66-.11-1.31-.22-1.97-.34v-2.61h-2.44c-.1-.59-.2-1.18-.3-1.77l-.09-.5-.44.26c-.94.55-1.88,1.1-2.82,1.65l-1.08-1.55-.29-.42-.29.42Z"/>
      <path d="m10.66,21.32l-1.48-2.13-3.43,2-.43-2.49h-2.91v-2.74l-2.28-.39,2-3.43-2.13-1.48,2.13-1.48L.13,5.75l2.29-.39v-2.74h2.91l.43-2.49,3.43,2,1.48-2.13,1.48,2.13L15.56.13l.43,2.49h2.5v2.67l2.69.46-2,3.43,2.13,1.48-2.13,1.48,2,3.43-2.69.46v2.67h-2.5l-.43,2.49-3.43-2-1.48,2.13Zm-1.26-3.13l1.26,1.81,1.26-1.81,3.1,1.8.35-2.05h2.38v-2.55l2.25-.39-1.81-3.1,1.82-1.26-1.81-1.26,1.8-3.1-2.25-.39v-2.55h-2.38l-.35-2.05-3.1,1.81-1.26-1.81-1.26,1.81-3.09-1.8-.35,2.05h-2.79v2.62l-1.84.32,1.8,3.1-1.81,1.26,1.81,1.26-1.8,3.1,1.84.32v2.62h2.79l.35,2.05,3.09-1.8Z"/>
      <circle class="cls-1" cx="10.63" cy="10.66" r="5.63"/>
    </g>
  </g>
</svg>