<?xml version="1.0" encoding="UTF-8"?>
<svg id="Layer_2" data-name="Layer 2" xmlns="http://www.w3.org/2000/svg" viewBox="0 0 18.75 18.75">
  <defs>
    <style>
      .cls-1 {
        fill: #ffffff;
        stroke: #000;
        stroke-miterlimit: 10;
        stroke-width: .75px;
      }
    </style>
  </defs>
  <g id="Layer_2-2" data-name="Layer 2">
    <g>
      <circle class="cls-1" cx="9.38" cy="9.38" r="9"/>
      <g>
        <path d="m9.12,12.64v.19h-2.96v-.19h.24c.28,0,.49-.08.62-.25.08-.11.12-.37.12-.78v-4.46c0-.35-.02-.58-.07-.69-.03-.08-.1-.16-.21-.22-.15-.08-.31-.12-.47-.12h-.24v-.19h2.96v.19h-.25c-.28,0-.49.08-.62.25-.08.11-.13.37-.13.78v4.46c0,.35.02.58.07.69.03.08.11.16.21.22.15.08.3.12.46.12h.25Z"/>
        <path d="m12.59,12.64v.19h-2.96v-.19h.24c.28,0,.49-.08.62-.25.08-.11.12-.37.12-.78v-4.46c0-.35-.02-.58-.07-.69-.03-.08-.1-.16-.21-.22-.15-.08-.31-.12-.47-.12h-.24v-.19h2.96v.19h-.25c-.28,0-.49.08-.62.25-.08.11-.13.37-.13.78v4.46c0,.35.02.58.07.69.03.08.11.16.21.22.15.08.3.12.46.12h.25Z"/>
      </g>
    </g>
  </g>
</svg>