<?xml version="1.0" encoding="UTF-8"?>
<svg id="Layer_2" data-name="Layer 2" xmlns="http://www.w3.org/2000/svg" viewBox="0 0 18.75 18.75">
  <defs>
    <style>
      .cls-1 {
        fill: #83739a;
        stroke: #000;
        stroke-miterlimit: 10;
        stroke-width: .75px;
      }
    </style>
  </defs>
  <g id="Layer_2-2" data-name="Layer 2">
    <g>
      <circle class="cls-1" cx="9.38" cy="9.38" r="9"/>
      <path d="m13.03,5.85v.19c-.24.04-.43.12-.55.23-.18.17-.34.42-.48.76l-2.41,5.87h-.19l-2.58-5.95c-.13-.31-.23-.49-.28-.56-.08-.11-.19-.19-.31-.25s-.29-.1-.5-.11v-.19h2.82v.19c-.32.03-.53.08-.62.16s-.14.18-.14.3c0,.17.08.43.23.79l1.76,4.04,1.63-3.99c.16-.39.24-.67.24-.82,0-.1-.05-.19-.15-.28s-.26-.15-.5-.19c-.02,0-.05,0-.09-.02v-.19h2.13Z"/>
    </g>
  </g>
</svg>