<?xml version="1.0" encoding="UTF-8"?>
<svg id="Layer_2" data-name="Layer 2" xmlns="http://www.w3.org/2000/svg" viewBox="0 0 21 21">
  <defs>
    <style>
      .cls-1 {
        fill: none;
        stroke: #000;
        stroke-miterlimit: 10;
      }
    </style>
  </defs>
  <g id="Layer_2-2" data-name="Layer 2">
    <path class="cls-1" d="m19.89,14.97c.41-.73.61-1.52.61-2.37,0-1.18-.43-2.21-1.28-3.09-.84-.9-1.85-1.35-3.02-1.35-.53,0-1.08.1-1.63.31-.54.21-1.07.45-1.59.73-.02.01-.05,0-.07-.01l-.04-.04s-.02-.05,0-.07l1.55-1.98c.46-.78.69-1.55.69-2.31,0-1.19-.45-2.21-1.35-3.07-.87-.81-1.95-1.22-3.24-1.22s-2.37.41-3.26,1.22c-.89.83-1.33,1.84-1.33,3.02,0,.73.24,1.49.71,2.31.2.34.43.68.69,1.02.24.32.5.63.79.94.02.02.02.05,0,.08l-.02.03s-.05.03-.07.02c-.27-.11-.52-.23-.77-.34-.26-.12-.53-.25-.81-.38-.53-.22-1.08-.33-1.64-.33-1.18,0-2.19.45-3.04,1.35-.83.87-1.24,1.9-1.24,3.09s.43,2.32,1.28,3.26c.86.95,1.91,1.41,3.15,1.41.31,0,.63-.05.95-.14.32-.09.65-.22.97-.38.32-.16.62-.34.92-.54.29-.2.56-.42.8-.63.04.04.07.08.07.11.03.09.04.18.04.28,0,.46-.12,1.02-.35,1.68-.22.7-1.11,2.9-1.11,2.9l6.48.02s-.53-1.44-.88-2.36c-.34-.93-.52-1.65-.52-2.18,0-.06.02-.15.05-.26,0-.04.02-.09.07-.13.18.14.36.29.54.44.18.14.38.28.57.41.43.29.85.5,1.28.64.42.14.84.21,1.25.21.71,0,1.4-.19,2.06-.56.78-.43,1.38-1.01,1.78-1.74"/>
  </g>
</svg>