<?xml version="1.0" encoding="UTF-8"?>
<svg id="Layer_2" data-name="Layer 2" xmlns="http://www.w3.org/2000/svg" viewBox="0 0 310.6 308.25">
  <defs>
    <style>
      .cls-1 {
        fill: #cd1719;
        stroke-linejoin: round;
      }

      .cls-1, .cls-2, .cls-3, .cls-4, .cls-5 {
        stroke: #000;
      }

      .cls-2 {
        fill: #248736;
      }

      .cls-2, .cls-4 {
        stroke-miterlimit: 10;
      }

      .cls-3 {
        fill: none;
      }

      .cls-3, .cls-5 {
        stroke-width: .2px;
      }

      .cls-4 {
        fill: #2062ac;
      }
    </style>
  </defs>
  <g id="Layer_2-2" data-name="Layer 2">
    <g id="Layer_1-2" data-name="Layer 1-2">
      <path class="cls-1" d="m19.66,10.75c.56-1.28.84-2.45.84-3.57,0-1.4-.5-2.69-1.49-3.87-1.06-1.26-2.36-1.88-3.89-1.88s-2.67.61-3.59,1.84c-.16.19-.46.75-.46.75l-.48.8-.53-.82s-.33-.57-.51-.78c-.95-1.24-2.17-1.86-3.64-1.86-1.55,0-2.86.62-3.92,1.88-.99,1.16-1.48,2.45-1.48,3.87,0,1.13.29,2.32.86,3.56.64,1.4,1.63,2.87,2.98,4.43.31.38.86.98,1.62,1.81.56.61,1.06,1.15,1.51,1.63.45.47.86.88,1.2,1.2.99.97,1.89,1.63,1.89,1.63,0,0,.9-.72,2.04-1.84.56-.57,1.17-1.21,1.86-1.93.68-.72,1.42-1.53,2.19-2.43,1.37-1.57,2.36-3.05,3.01-4.43"/>
    </g>
    <path class="cls-4" d="m303.61,6.65c-1.64-1.65-2.98-3.5-4.01-5.54-1.02,2.01-2.37,3.86-4.05,5.55-1.68,1.69-3.66,3.17-5.95,4.46,2.31,1.33,4.3,2.82,5.97,4.47,1.67,1.65,3.02,3.49,4.03,5.51,1.01-2.03,2.36-3.87,4.03-5.51,1.67-1.65,3.66-3.14,5.97-4.47-2.35-1.33-4.34-2.83-5.99-4.47"/>
    <path class="cls-2" d="m19.89,299.07c.41-.73.61-1.52.61-2.37,0-1.18-.43-2.21-1.28-3.09-.84-.9-1.85-1.35-3.02-1.35-.53,0-1.08.1-1.63.31-.54.21-1.07.45-1.59.73-.02.01-.05,0-.07-.01l-.04-.04s-.02-.05,0-.07l1.55-1.98c.46-.78.69-1.55.69-2.31,0-1.19-.45-2.21-1.35-3.07-.87-.81-1.95-1.22-3.24-1.22s-2.37.41-3.26,1.22c-.89.83-1.33,1.84-1.33,3.02,0,.73.24,1.49.71,2.31.2.34.43.68.69,1.02.24.32.5.63.79.94.02.02.02.05,0,.08l-.02.03s-.05.03-.07.02c-.27-.11-.52-.23-.77-.34-.26-.12-.53-.25-.81-.38-.53-.22-1.08-.33-1.64-.33-1.18,0-2.19.45-3.04,1.35-.83.87-1.24,1.9-1.24,3.09s.43,2.32,1.28,3.26c.86.95,1.91,1.41,3.15,1.41.31,0,.63-.05.95-.14.32-.09.65-.22.97-.38.32-.16.62-.34.92-.54.29-.2.56-.42.8-.63.04.04.07.08.07.11.03.09.04.18.04.28,0,.46-.12,1.02-.35,1.68-.22.7-1.11,2.9-1.11,2.9l6.48.02s-.53-1.44-.88-2.36c-.34-.93-.52-1.65-.52-2.18,0-.06.02-.15.05-.26,0-.04.02-.09.07-.13.18.14.36.29.54.44.18.14.38.28.57.41.43.29.85.5,1.28.64.42.14.84.21,1.25.21.71,0,1.4-.19,2.06-.56.78-.43,1.38-1.01,1.78-1.74"/>
    <path d="m309.15,302.72c.15-.25.26-.5.33-.78.08-.27.11-.56.11-.86,0-.63-.17-1.32-.52-2.06-.34-.75-.9-1.58-1.68-2.5-.5-.6-1.05-1.23-1.66-1.89-.6-.66-1.26-1.37-1.96-2.13-.46-.5-.94-1-1.43-1.5-.49-.49-1-1.01-1.54-1.54l-1.22-1.2-1.22,1.2c-.63.62-1.19,1.18-1.69,1.69-.5.51-.93.96-1.3,1.35-.6.64-1.21,1.3-1.81,1.96-.6.66-1.2,1.35-1.79,2.07-.77.9-1.33,1.74-1.68,2.51-.34.77-.51,1.45-.51,2.05,0,1,.42,1.84,1.27,2.5.83.67,1.88,1.01,3.16,1.01.77,0,2.31-.14,3.12-.41.15-.04.29-.1.44-.16.14-.06.32-.14.53-.23-.02.12-.04.22-.06.32-.02.1-.04.19-.05.28-.26.99-1.5,2.9-1.5,2.9l-.6.93,7.45.02-.68-.95s-.67-.88-.91-1.36c-.24-.47-.44-.98-.58-1.51-.02-.1-.04-.2-.06-.31-.02-.11-.04-.22-.05-.33.2.09.38.16.54.23.16.06.31.12.46.16.81.27,2.05.41,2.8.41.54,0,1.33-.07,1.82-.2.49-.14.96-.36,1.43-.66.42-.29.76-.62,1.03-1.01"/>
    <g id="Layer_1-2-2" data-name="Layer 1-2">
      <g>
        <path d="m59.59,11.49l-.65-.08.21-.06h.87l.65.06v.06c-.21.02-.58.03-1.08.02m-6.51.49l-.58-.03.15-.1.51-.04,1.08.02c.29.01.29.05,0,.11l-1.16.04Zm4.19.28c-.36-.02-.57-.08-.57-.19l1.16-.18,1.08.03.21.18-.57.11h-.21c-.15.03-.87.05-1.08.05m-28.92.67c0-.08.29-.16.8-.23l-.15-.04v-.05l.8.02c1.16-.09,2.46-.13,3.98-.13h5.21l1.8-.08h2.1c.07-.14.15-.35.07-.62l.51.2.8.44.87.06h7.88l.72-.09h.87l.65.09h12.15l1.16-.08h3.04l1.59.08h18.43l.36-.05,2.03.05h5.64l.15-.34.87.34h12.07l.43-.15,1.37-.04-.21.19h4.12l1.3-.09,1.73.09h1.8c2.46,0,5.42.16,5.42.43v.12h2.24v-.64l-.72-.19.29-.09-6.07-.05-11.35-.22-27.4-.35,18.87.13,6.07.13,17.5.23,2.6.03.21-.08v-.5l-.72-.14.72-.06v-.67h-2.24v.12c0,.27-2.96.43-5.42.43h-7.23l-1.52.07-3.54-.07h-2.67l-1.73.03-1.66-.03h-5.5l-.94.13-2.46-.13h-20.89c.07.18.07.28,0,.31l-.87.36-.15-.19-.72-.21-.15-.18.15-.09h-9.18l-1.8.03-.29-.03h-1.74l-.8.11h-2.89l-2.1-.08-1.59-.02-1.3.11-.36-.11h-7.95l-2.39.08-2.17-.08h-5.06c-2.46,0-5.42-.16-5.42-.43v-.12h-2.24v.38l1.01.17-1.01.11v1.25l1.01.03-.36.26-.65.14v.12h2.24v-.12h0Z"/>
        <path class="cls-3" d="m154.79,4.52l-.03-.08s.02-.04.07-.05l.07.06v.05l-.07.03h-.05Z"/>
        <path class="cls-3" d="m154.64,5.01l-.02-.06v-.06l.04-.03s.04.02.04.06l-.02.08h-.04Z"/>
        <path class="cls-3" d="m155.09,4.83l-.02-.08.02-.06h.1s.02,0,.04.02c.01,0,.02.02.03.04,0,.02,0,.03-.02.05-.01.02-.03.03-.04.05,0,0-.02.02-.03.02l-.08-.03h0Z"/>
        <path d="m162.82,17.34l-.08-.02-.06-.09s-.05-.02-.08-.02l-.06.03v-.03c-.09.01-.14.04-.18.09s-.06.11-.06.16.01.11.04.16.04.09.04.12c0,.1-.05.19-.15.25-.1.07-.23.1-.37.1-.8,0-1.66-.21-2.59-.62h-.07l-.08-.02-.06-.07-.04-.02h-.1l-.06-.07c-.6-.3-1.2-.68-1.82-1.14h-.04v-.03l-.11-.08-.11-.04-.05-.09s-.09-.07-.16-.13h-.1v-.08l-.15-.14-.05-.02-.1-.1-.13-.06-.08-.15c-.27-.26-.52-.51-.74-.74.01-.02.04-.04.06-.06v-.06l.05-.08.09-.02.04-.06.04-.07.07-.05c.27-.31.51-.62.72-.92l.04-.14c.08-.06.12-.09.12-.09l.03-.13.09-.1.05-.02.06-.09v-.06l.02-.08h.07l.04-.11.11-.14s.06-.09.1-.17v-.07l.05-.02c.41-.75.7-1.46.87-2.15l-.06-.11.05-.11.07-.07v-.03l-.04-.1.07-.05c.07-.39.1-.74.1-1.08,0-.29-.03-.6-.08-.93l-.03-.05-.04-.1v-.13s-.05-.1-.05-.1v-.17l-.04-.12-.06-.09.03-.04c-.2-.6-.48-1.12-.84-1.55l-.08.03c-.01.11-.02.25-.03.41l-.02-.16v-.38s-.04-.05-.04-.05v-.07s-.06-.04-.07-.06h-.08l-.07-.03v-.11s-.04-.03-.04-.04h-.05l-.1-.09-.08-.09-.03-.03-.12-.02-.02-.06c-.35-.2-.73-.3-1.13-.3-.15,0-.3,0-.46.04l-.09.1h-.15l-.1.06-.1.07c-.06-.02-.1-.03-.12-.03l-.06.1-.06.06-.07-.05c-.45.27-.83.68-1.15,1.23v.1l-.11.11-.02.13-.04.13-.08.04v.04s-.01.1-.01.1l-.03.08-.04.03-.02.07v.05l-.04.14-.04.07-.03.11v.1l-.03.03c-.11.46-.16.94-.16,1.46,0,.24.01.49.04.74l.02.04v.17l.06.13v.13s0,.07.01.14l.04.03.04.07-.04.05c.05.21.1.37.13.48l.04.05v.04c.18.58.45,1.18.8,1.8l.09.08.02.11.1.15.1.05-.02.07.07.11.1.11.07.13.13.08.02.15c.32.44.66.86,1.04,1.27l-.46.47-.03.04-.1.15h-.07v.08l-.07.05-.07.03-.05.02c-.57.51-1.16.96-1.75,1.34l-.02.06-.1.05h-.06s-.07.05-.1.07v.05h-.07c-.59.34-1.16.61-1.72.81l-.12.11-.14-.02-.1.06h-.15s-.08.04-.15.05v.02s-.07.04-.07.04l-.04-.04c-.18.04-.32.07-.42.08l-.09.08-.14-.06c-.18.02-.36.03-.54.03-.14,0-.27-.03-.37-.1-.1-.07-.15-.15-.15-.25,0-.03.01-.07.04-.12s.04-.1.04-.16c0-.07-.03-.13-.08-.18s-.12-.08-.21-.08c-.07,0-.15.03-.21.09s-.09.14-.09.24c0,.21.1.39.29.54.2.15.44.23.73.23.87,0,1.82-.24,2.84-.71l.12-.1h.07s.07-.03.1-.03l.04-.05h.06c.63-.32,1.25-.71,1.86-1.18l.09-.09.13-.08.08-.12.1-.03c.45-.37.88-.77,1.31-1.21.1.11.22.23.36.36l.13.07.02.09.06.06h.08l.02.1c.48.44.98.84,1.49,1.2l.1.05.13.08.1.09s.08.05.12.08h.13v.08l.09.05.15.06.11.09.15.02.07.11c.66.36,1.3.63,1.93.81h.15l.07.06.07.02.07-.05.06.07c.4.09.79.14,1.16.14.24,0,.44-.05.63-.16l.04-.07.08-.08.08-.03.04-.12.07-.03c.04-.09.07-.18.07-.27s-.02-.16-.06-.21l.02.02Zm-7.98-3.22l-.07-.03-.06-.05-.06-.13-.11-.08-.05-.07v-.05l-.13-.12-.04-.06v-.04c-.66-.86-1.19-1.74-1.57-2.62l-.1-.06v-.22c-.32-.8-.47-1.56-.47-2.26,0-.44.07-.86.22-1.27s.37-.75.67-1.03l.04-.06.1-.09.08-.03v-.12h.18c.07-.05.15-.09.21-.12l.03-.04h.02c.1-.03.18-.06.26-.08.04-.02.09-.03.13-.04l.08-.12.19.02c.02-.07.04-.25.06-.54l.02.16v.38s.01.03.01.03c.15-.02.33-.03.51-.03.49,0,.94.1,1.33.3l.21.03.08.15c.41.28.73.65.95,1.11.22.46.32.92.32,1.38,0,.65-.14,1.36-.41,2.12v.16l-.08.06-.02.06v.1l-.07.07c-.13.3-.29.62-.48.96v.09l-.1.07v.08l-.08.05c-.1.16-.15.25-.16.28v.03h-.03c-.16.25-.25.38-.27.41v.08l-.08.04c-.32.45-.69.91-1.1,1.36l-.18-.2v-.02Z"/>
        <path d="m148.59,10.23v-.02c0-.22,0-.43-.03-.64h-.04v-.15l-.04-.03v-.08l-.04-.08v-.11s-.01-.06-.01-.06v-.03s.04-.02.04-.02c-.12-.59-.32-1.13-.61-1.63l-.08-.04v-.09l-.07-.06-.04-.1v-.04h-.07v-.05s-.01-.07-.01-.07l-.02-.02h-.04l-.05-.07v-.08s-.08-.05-.08-.05v-.05c-.06-.06-.1-.1-.13-.12l.14.42.34,1.08.21.52.31.77.13.26.21.62v.02Zm-3.32-1.02l.04-.09.05-.07s.01-.05.03-.09v-.05c.05-.14.07-.29.07-.45,0-.41-.1-.74-.32-.98l-.09-.06-.02-.05c-.18-.16-.39-.25-.62-.26v.03s-.04-.02-.04-.02h-.04s-.01,0-.03,0h-.03l-.02.02-.07.03-.04-.03c-.13.04-.26.1-.36.19-.11.09-.19.21-.24.35v.02l-.04.1s-.01.03-.01.05v.05s.01.05.01.05l-.04.04v.08s.01.14.01.14c.01.19.08.34.19.46s.24.18.38.18c.07,0,.12-.02.17-.05v-.05l.07-.03.04-.09v-.02s.01-.02.01-.04c0-.06-.01-.1-.04-.13h-.01l-.02-.02h-.01v-.03h-.05s-.07.01-.1.04c-.02.03-.04.06-.04.09,0,.03-.01.06-.04.09s-.05.04-.1.04c-.1,0-.18-.05-.25-.15-.07-.1-.11-.23-.11-.39s.04-.3.12-.44v-.04h.02c.07-.11.17-.2.29-.27s.24-.1.38-.1c.19,0,.37.06.52.17.15.11.27.26.35.46h.04v.08c.05.16.08.34.08.52,0,.17-.04.34-.1.51-.07.17-.15.32-.27.45-.12.13-.27.24-.44.33-.18.08-.37.13-.57.13-.27,0-.52-.1-.74-.3-.22-.2-.4-.47-.52-.8l-.09-.03s-.1-.03-.28-.04l.08-.02h.27c-.09-.28-.14-.58-.14-.89,0-.21.02-.42.07-.63l-.05-.05.08-.05c.1-.34.27-.64.49-.9l.02-.05.04-.02c.32-.33.69-.52,1.11-.59l.17-.16c-.25.02-.51.06-.77.14l-.02.04h-.1l-.04.02-.07.03h-.02s-.02,0-.04,0v.06h-.1s-.02,0-.03,0l-.02.05-.07.05h-.06l-.05.06h-.05c-.18.12-.33.26-.46.41v.04l-.04.03h-.02c-.11.14-.2.28-.28.42v.04l-.04.05v.02l-.02.08-.04.1h-.02v.09s.01.04.01.04l-.05.05.02.07-.03.09-.04.06v.1l-.04.05c-.01.08-.01.17-.01.25v.04h.08l-.07.04c0,.19.03.37.07.53l.07.03v.05l-.04.02c.04.15.1.29.18.43h.05v.1s.08.06.08.06l.05.09v.04h0l.04.02.04.02v.08h.07l.05.05.02.08.07.04v.05c.29.23.6.37.96.43h.13s.01,0,.01,0l.05-.03.07.05.07-.04.07.03h0c.21-.02.41-.08.6-.2.19-.11.35-.26.48-.45v-.11l.07-.03v-.02Zm1.99,4.78c.2-.22.38-.46.55-.72v-.04s.01-.03.01-.03l.03-.02s0-.01.01-.03c0-.01.01-.02.01-.02v-.04l.03-.08.05-.05v-.09s.07-.06.07-.06h0c.07-.14.13-.29.19-.46l-.04-.02.03-.03.04-.03c.04-.1.07-.2.09-.3v-.03s0-.04,0-.04l.02-.02s.01-.06.02-.08v-.03s0-.08,0-.08l.03-.07v-.09l.04-.07c.06-.33.1-.66.11-.99l-.03-.11v-.09s-.38-1.01-.38-1.01l-.23-.49-.38-1.07-.27-.74-.11-.44c-.21-.23-.46-.44-.74-.62h-.06l-.04-.06-.07-.02-.08-.06-.04-.02-.04.03-.03-.04-.02-.04-.04-.02h-.14v-.06h-.04s-.05,0-.05,0l-.02-.03c-.34-.13-.69-.2-1.07-.21l-.04.03-.04-.04h-.01l-.06.04h-.05l-.03-.03-.14.14c.1,0,.18-.02.27-.02.5,0,.98.17,1.45.5.47.33.86.79,1.18,1.38h.05v.07c.41.81.61,1.74.61,2.79v.02s.01.06.01.06v.06s.08.03.08.03c0,0,.1.03.28.04h-.08l-.18.02h-.1v.05l-.02.02v.17s0,.02,0,.02v.16s-.01.04-.01.04v.08s0,.08,0,.08l-.04.07c-.1.7-.31,1.34-.61,1.91v.05s-.01.06-.01.06l-.07.05.02.07-.07.06h-.04l-.02.05.04.02-.04.02v.03s-.04.02-.04.02h-.02l-.02.04v.03l-.07.1-.03.05-.06.08-.08.06c-.38.46-.8.79-1.26,1.01.02.01.12.02.28.04h-.08l-.18.02-.12-.02c-.38.16-.76.23-1.15.23-.69,0-1.34-.11-1.93-.33h-.04v-.02s-.07-.02-.07-.02l-.02.02-.07-.06c-.07-.03-.11-.05-.13-.06h-.02c-.05-.03-.13-.07-.24-.12h-.04l-.03-.04c-.41-.22-.8-.48-1.19-.78-.38-.3-.77-.65-1.18-1.05h0l-.07-.04-.03-.06h-.01s-.05.02-.05.02l-.05-.09v-.04l-.05-.04h-.03l-.04-.02v-.05l-.03-.03h-.01l-.07-.05-.05-.06h-.07l-.04-.13c-.62-.63-1.08-1.07-1.38-1.33h-.03l-.08-.09c-.41-.34-.8-.58-1.16-.73h-.07l-.05-.05h-.08l-.04-.02-.04-.02h-.08l-.04-.02-.03-.02h-.05l-.07-.02-.05-.02h-.02l-.07.02-.03-.03c-.13-.02-.23-.02-.32-.02-.28,0-.55.05-.83.15s-.52.24-.75.42v.03s-.06.03-.06.03h-.01v.08l-.07.05h-.05v.02s-.03.07-.03.07l-.02.03h-.07v.07l-.05.07v.87l-.04-.83-.02.02v.07h-.05l-.05.05c-.1.17-.16.34-.21.52l.04.03-.05.03c-.03.15-.04.29-.04.44,0,.19.02.37.06.55h.04v.12s.01.04.01.04v.06s.04.02.04.02l.03.04-.02.06v.04h.03l.04.09v.02c.06,0,.13.02.21.02h-.08l-.12.02v.02h.01s.06.06.06.06v.05c.04.07.1.16.18.25l.04-.02v.07c.34.37.75.6,1.25.68v-.02s.1.03.1.03h.1l.04-.02v.03h.15c.14,0,.27-.03.41-.08l.04-.05h.07v-.08l.1-.03h.07v-.03h.04c.14-.15.22-.32.25-.53l-.02-.1.03-.06v-.03l-.04-.04.02-.07c-.03-.18-.1-.33-.21-.44s-.24-.17-.38-.17h-.04l-.04.03-.03.03h-.07l-.02.06-.04.02s-.04.1-.04.15.01.1.04.14.06.05.1.05h.04v-.03h.04s.04-.02.04-.05.02-.06.03-.08c0-.02.02-.05.04-.07.02-.02.04-.03.08-.03.04,0,.09.01.13.04h.02l.06.03v.05s.04.03.05.04l.04.02.02.05v.05c.04.08.05.17.05.26,0,.1-.01.19-.05.29h0v.02s-.04.06-.06.09v.05s-.04.03-.04.03l-.04.02c-.13.17-.29.27-.5.32l-.02.02-.05.02-.02-.02h-.12c-.12,0-.24-.01-.35-.04h-.13l-.05-.05-.07-.03h0s-.07-.05-.13-.08h-.01v-.02s-.12-.07-.12-.07l-.09-.02v-.07l-.02-.02-.04-.03-.04-.02v-.05c-.14-.16-.24-.35-.31-.56l-.02-.02v-.05c-.04-.14-.07-.29-.1-.45l-.02-.07-.05-.08.04-.08v-.27l-.02-.03v-.05s.03-.02.03-.02v-.12s-.01-.1-.01-.1l.02-.06-.02-.08.03-.04.03-.06c.07-.38.22-.7.45-.96-.05,0-.13-.02-.22-.03h.08l.14-.02h.05c.06-.07.13-.13.2-.19l.02-.04.04-.03.06-.02c.13-.08.27-.15.43-.19l.1-.07.05.04c.08-.01.15-.02.24-.02h.14l.06-.02.06.03h.04l.04-.02.04.02.04.02c.24.03.47.1.72.21h.04l.06.02.05.05c.46.23,1.02.67,1.66,1.31l.07.02v.06s.01.01.03.02c0,0,.01.01.01.01h.04l.03.07.02.02c.09.09.25.25.49.5.23.24.43.45.61.62.18.18.35.34.52.5h.07l.03.09.07.04.07.07v.02l.03.02.04-.02.02.04.02.06h.06l.04.05.05.06.07.03.04.08c.28.22.55.41.8.57h.06l.02.05h.07l.04.04.02.03c.38.21.74.38,1.1.49l.05-.02.05.06h.07l.09.03h0l.03.02.07-.02.04.05h.01l.04-.03.13.05h.06l.04.02.04.03c.26.05.6.07,1.03.07h.25l.02-.02.03.02.24-.02.05-.03.03.02h.05l.03-.02.07-.03.05.02.06-.04.07.02c.27-.06.55-.15.83-.28l.02-.05h.05s.04-.01.06-.02l.02-.02.09-.04.04-.02v-.05h.13s.01-.05.01-.05l.07-.04.05-.02.05-.06h.07c.18-.14.35-.29.52-.46h-.02s-.1-.04-.28-.05h.08l.18-.02h.1l.07-.04Z"/>
        <path d="m250.5,11.49c-.51.01-.87,0-1.08-.02v-.06l.65-.04h.87l.21.04-.65.08m5.35.45c-.29-.06-.29-.1,0-.11l1.08-.02.51.04.15.1-.58.03-1.16-.04Zm-3.04.32c-.21,0-.94-.02-1.08-.04h-.21l-.57-.13.21-.18,1.08-.03,1.16.18c0,.11-.21.16-.57.19m28.92.79h2.24v-.12l-.65-.14-.36-.26,1.01-.03v-1.25l-1.01-.11,1.01-.17v-.38h-2.24v.12c0,.27-2.96.43-5.42.43h-5.06l-2.17.08-2.39-.08h-7.95l-.36.11-1.3-.11-1.59.02-2.1.08h-2.89l-.8-.11h-1.74l-.29.03-1.8-.03h-9.18l.15.09-.15.18-.72.21-.15.19-.87-.36c-.07-.03-.07-.14,0-.31h-20.89l-2.46.13-.94-.13h-5.5l-1.66.03-1.73-.03h-2.67l-3.54.07-1.52-.07h-7.23c-2.46,0-5.42-.16-5.42-.43v-.12h-2.24v.67l.72.06-.72.14v.5l.21.08,2.6-.03,17.5-.23,6.07-.13,18.87-.13-27.4.35-11.35.22-6.07.05.29.09-.72.19v.64h2.24v-.12c0-.27,2.96-.43,5.42-.43h1.8l1.73-.09,1.3.09h4.12l-.21-.19,1.37.04.43.15h12.07l.87-.34.15.34h5.64l2.03-.05.36.05h18.43l1.59-.08h3.04l1.16.08h12.15l.65-.08h.87l.72.07h7.3s.57.01.57.01l.87-.06.8-.44.51-.2c-.07.28,0,.48.07.62h2.1l1.8.08h5.21c1.52,0,2.82.04,3.98.13l.8-.02v.05l-.15.04c.51.06.8.14.8.23v.12h0Z"/>
        <path class="cls-5" d="m161.71,9.61l.13-.26.31-.77.21-.52.34-1.08.14-.42s-.07.07-.11.12v.05s-.08.05-.08.05v.08s-.07.06-.07.06h-.04v.03s-.01.07-.01.07v.05h-.07v.02s-.01.02-.01.02l-.04.1-.06.06v.09l-.09.04c-.29.5-.49,1.04-.61,1.63l.03.02v.03s-.01.06-.01.06v.11s-.01.08-.01.08v.08l-.06.03v.13s-.03,0-.03,0c-.02.22-.04.43-.04.65v.02l.22-.62h0Z"/>
        <path class="cls-5" d="m164.88,9.24v.11c.13.19.29.34.49.45.19.11.4.18.6.2h0l.07-.04.07.04.07-.05.05.03v.02s.08-.03.08-.03h.07c.35-.04.66-.19.94-.42v-.05s.08-.04.08-.04l.02-.08.05-.05h.06v-.09s.05-.02.05-.02h.04v-.02s0-.04,0-.04l.05-.09.07-.06v-.08h.07c.07-.16.13-.3.18-.45l-.03-.02v-.05l.06-.03c.04-.16.07-.34.07-.53l-.07-.04h.08v-.04c0-.08,0-.17-.01-.25l-.03-.05v-.1l-.04-.06-.03-.09.02-.07-.05-.05v-.11h0l-.02-.02-.04-.1v-.08s-.01-.02-.01-.02l-.05-.05v-.04c-.07-.14-.16-.28-.27-.41h-.02l-.04-.04v-.04c-.13-.15-.29-.28-.46-.41h-.05l-.05-.06h-.06l-.07-.04-.02-.05s-.02,0-.03,0h-.09s-.01-.05-.01-.05c0,0-.02,0-.04-.02h-.02l-.07-.03-.04-.02-.04-.02h-.05l-.02-.03c-.26-.08-.52-.13-.77-.14l.17.16c.42.07.8.26,1.11.59l.04.02.02.05c.22.25.39.55.49.9l.08.05-.05.05c.05.21.07.42.07.63,0,.31-.04.61-.14.89h.27l.08.02c-.18.01-.27.03-.28.04l-.09.03c-.12.33-.29.6-.52.8-.22.2-.47.3-.74.3-.21,0-.39-.04-.57-.13-.18-.08-.32-.19-.44-.33-.12-.13-.21-.28-.27-.45-.07-.17-.1-.34-.1-.51,0-.19.03-.36.08-.52v-.08h.03c.08-.19.2-.35.35-.46.15-.11.32-.17.52-.17.14,0,.27.03.38.1s.21.16.29.27h.02v.04c.07.14.12.28.12.44s-.04.29-.11.39c-.07.1-.15.15-.25.15-.04,0-.07-.01-.1-.04-.02-.03-.04-.06-.04-.09s-.02-.06-.04-.09-.06-.04-.1-.04h-.04v.04h-.07s-.04.09-.04.14v.06s.05.09.05.09l.07.03v.05c.05.03.1.05.17.05.15,0,.27-.06.38-.18.11-.12.18-.27.21-.46v-.14s0-.04,0-.04v-.04l-.03-.04v-.1s0-.04,0-.05l-.04-.1v-.02c-.06-.14-.14-.26-.25-.35s-.23-.16-.36-.19l-.04.03-.07-.03-.02-.02h-.1l-.02.03v-.03c-.24,0-.45.1-.63.26l-.02.05-.09.06c-.21.25-.32.58-.32.98,0,.16.02.31.06.45l.02.02v.03s.01.07.02.09l.05.07.04.09.07.03-.03.06Z"/>
        <path class="cls-5" d="m162.92,13.97h.18l.08.02c-.18.01-.27.03-.28.04h-.02c.17.18.34.33.52.46h.07l.05.08.05.02.07.04v.04s.05.02.05.02h.08v.05l.04.02.09.04.02.02s.03.01.06.03h.05l.02.03c.28.13.55.22.83.28l.07-.02.06.04.05-.02.07.03.03.02h.05l.03-.02.05.03.24.02.03-.02.02.02h.25c.43,0,.77-.02,1.03-.07l.04-.03.04-.02h.06l.13-.05.04.03h.01l.04-.05.07.02h.03v-.02l.09-.03h.07l.05-.06.05.02c.35-.12.72-.28,1.1-.49l.02-.03.04-.04h.07l.02-.06h.06c.25-.15.52-.34.8-.56l.04-.08.07-.03.05-.06.04-.05h.06l.02-.06.02-.04.04.02.02-.02v-.02l.07-.07.07-.04.03-.09h.07c.18-.16.35-.33.52-.51s.38-.38.61-.62.39-.41.49-.5l.02-.02.03-.06h.04s0-.02.01-.02.01-.01.01-.02v-.06s.08-.02.08-.02c.65-.64,1.2-1.07,1.66-1.31l.05-.05h.06l.04-.02c.24-.11.49-.18.72-.21l.04-.02.04-.02.04.02h.04l.06-.03.06.02h.14c.08,0,.15,0,.24.03l.05-.04.1.07c.15.04.29.11.43.19l.06.02.04.03.02.04c.07.06.14.12.2.19h.19l.08.02c-.1,0-.17.02-.22.03.23.26.38.59.45.96l.03.06.03.04-.02.08.03.06v.12s-.01.02-.01.05v.07s.03.05.03.05l-.02.03v.17s.01.1.01.1l.04.08-.05.08-.02.07c-.02.15-.05.3-.1.45v.02s.01.03.01.03l-.04.02c-.07.22-.17.41-.29.56v.05s-.06.02-.06.02l-.04.03v.02s-.01.07-.01.07l-.1.02-.1.07v.02h-.03c-.06.03-.1.06-.13.07h0l-.07.04-.05.05h-.13c-.12.03-.24.04-.35.04h-.12l-.02.02-.05-.02-.02-.02c-.21-.05-.37-.16-.5-.32l-.04-.02-.02-.03v-.05s-.05-.07-.06-.09h-.01v-.02c-.04-.1-.05-.19-.05-.29,0-.09.01-.17.04-.26v-.05l.03-.05.04-.02s.02-.03.04-.04v-.05s.07-.03.07-.03h.02s.09-.04.13-.04c.04,0,.06,0,.08.03.02.02.04.04.04.07,0,.03.01.05.03.08s.03.05.04.06h.03v.02h.04s.07-.02.1-.05c.03-.04.04-.08.04-.14s-.01-.11-.04-.15l-.04-.02-.02-.05h-.07l-.03-.03-.04-.03h-.04c-.14,0-.27.06-.38.17s-.18.26-.21.44l.02.07-.04.04v.03l.03.06-.02.1c.03.2.11.38.25.53h.03v.03h.02s0,0,.01.01h.04l.1.02v.08h.08l.04.05c.13.05.27.08.41.08h.13v-.03s.06.02.06.02h.1l.08-.03v.02c.51-.08.92-.31,1.25-.68v-.07l.04.02c.08-.1.14-.18.18-.25v-.05l.05-.05h0v-.03h-.12l-.08-.02c.08,0,.15-.02.21-.02v-.02l.04-.08h.01v-.04s0-.06,0-.06l.03-.04.04-.02v-.06s.01-.04.01-.04v-.11h.04c.04-.19.06-.37.06-.55,0-.15-.01-.3-.04-.44l-.05-.03.04-.03c-.04-.17-.11-.35-.21-.52l-.05-.04h-.04v-.08s-.04-.02-.04-.02l-.04.83v-.87l-.04-.07v-.06h-.07s-.02-.04-.02-.04v-.07s-.03-.02-.03-.02h-.05l-.08-.05v-.07h0s-.04-.04-.04-.04v-.03c-.24-.18-.49-.32-.77-.42-.27-.1-.55-.15-.83-.15-.09,0-.2,0-.32.02l-.03.03-.07-.02h-.02l-.05.02-.07.02h-.05l-.03.02-.04.02h-.08l-.04.02-.04.02h-.08l-.05.05h-.07c-.36.15-.74.39-1.16.73l-.08.1h-.03c-.3.24-.76.69-1.38,1.32l-.04.11h-.07l-.05.08-.07.05h-.01l-.04.03v.05h-.04s-.03.01-.03.01l-.04.05v.04l-.06.09-.05-.03h-.01s-.03.07-.03.07l-.07.04h0c-.41.39-.8.74-1.18,1.05-.38.3-.77.56-1.19.78l-.03.05h-.04c-.1.04-.18.08-.24.1h-.02s-.06.04-.13.07l-.07.06-.02-.02-.07.02h0l-.04.02c-.59.22-1.24.33-1.93.33-.39,0-.77-.08-1.15-.23l-.12.02h-.18l-.08-.02c.15-.02.25-.03.28-.04-.47-.22-.89-.56-1.26-1.01l-.08-.06-.06-.08-.03-.05-.07-.1v-.06h-.04l-.02-.03v-.03s-.06-.02-.06-.02l.04-.02-.02-.04h-.04l-.07-.07.02-.07-.07-.05-.03-.06v-.05c-.29-.57-.49-1.21-.6-1.91l-.04-.07.02-.08-.02-.08v-.2l-.02-.02v-.07s.01-.07.01-.1l-.02-.02v-.07h-.1s-.18.01-.18.01l-.08-.02c.18-.02.27-.03.28-.04l.1-.03v-.06s-.01-.06-.01-.06l.02-.02c0-1.05.21-1.98.63-2.79v-.05s-.01-.03-.01-.03h.05c.32-.59.71-1.05,1.18-1.38s.95-.5,1.45-.5c.08,0,.17,0,.27.02l-.14-.14-.03.04h-.05l-.06-.04h-.01l-.04.04-.04-.03c-.38,0-.73.08-1.07.21l-.02.03h-.07v.07h-.11s-.04,0-.04,0h-.04l-.02.04-.03.04-.04-.03-.04.02-.08.06-.07.02-.04.07h-.06c-.28.18-.53.38-.74.61l-.11.44-.27.74-.38,1.07-.23.49-.39,1.01v.09s-.01.11-.01.11c.01.33.04.66.11.99l.04.07v.09l.02.07.02.08v.03s0,.05,0,.08l.02.02.02.04v.03c0,.1.04.2.07.3l.04.03.03.03-.04.02c.06.16.13.32.19.46h0l.06.06v.09s.07.05.07.05l.04.08v.04s0,.01,0,.02.01.02.01.03l.03.02.03.03v.04c.15.26.33.51.54.72h.1l.05.02Z"/>
      </g>
    </g>
    <g id="Layer_1-2-3" data-name="Layer 1-2">
      <g>
        <path d="m250.5,298.39c-.5.01-.87,0-1.08-.02v-.06l.65-.06h.87l.21.06-.65.08m5.35.45c-.29-.06-.29-.1,0-.11l1.08-.02.51.04.15.1-.58.03-1.16-.04Zm-3.04.32c-.21,0-.94-.02-1.08-.05h-.21l-.57-.11.21-.18,1.08-.03,1.16.18c0,.11-.21.17-.57.19m28.92.67v.12s2.24,0,2.24,0v-.12s-.65-.14-.65-.14l-.36-.26,1.01-.03v-1.25s-1.01-.11-1.01-.11l1.01-.17v-.38s-2.24,0-2.24,0v.12c0,.27-2.96.43-5.42.43h-5.06s-2.17.08-2.17.08l-2.39-.08h-7.95s-.36.11-.36.11l-1.3-.11-1.59.02-2.1.08h-2.89s-.8-.11-.8-.11h-1.74s-.29.03-.29.03l-1.8-.03h-9.18s.15.09.15.09l-.15.18-.72.21-.15.19-.87-.36c-.07-.03-.07-.13,0-.31h-20.89s-2.46.13-2.46.13l-.94-.13h-5.5s-1.66.03-1.66.03l-1.73-.03h-2.67s-3.54.07-3.54.07l-1.52-.07h-7.23c-2.46,0-5.42-.16-5.42-.43v-.12s-2.24,0-2.24,0v.67s.72.06.72.06l-.72.14v.5s.21.08.21.08l2.6-.03,17.5-.23,6.07-.13,18.87-.13-27.4.35-11.35.22-6.07.05.29.09-.72.19v.64s2.24,0,2.24,0v-.12c0-.27,2.96-.43,5.42-.43h1.8s1.73-.09,1.73-.09l1.3.09h4.12s-.21-.19-.21-.19l1.37.04.43.15h12.07s.87-.34.87-.34l.15.34h5.64s2.03-.05,2.03-.05l.36.05h18.43s1.59-.08,1.59-.08h3.04s1.16.08,1.16.08h12.15s.65-.09.65-.09h.87s.72.09.72.09h.43s6.87,0,6.87,0h.57s.87-.06.87-.06l.8-.44.51-.2c-.07.27,0,.48.07.62h2.1s1.8.08,1.8.08h5.21c1.52,0,2.82.04,3.98.13l.8-.02v.05l-.15.04c.51.07.8.15.8.23h0Z"/>
        <path class="cls-3" d="m155.29,291.43h-.04l-.07-.03v-.05l.07-.06c.05.01.07.05.07.05l-.03.08h0Z"/>
        <path class="cls-3" d="m155.45,291.9h-.04l-.02-.08s.04-.06.04-.06l.04.03v.06l-.02.06h0Z"/>
        <path class="cls-3" d="m155,291.74l-.08.03s-.02-.02-.03-.02c0-.02-.02-.03-.04-.05-.01-.02-.02-.03-.02-.05,0-.02.01-.04.03-.04.01,0,.03-.02.04-.02h.1l.02.06-.02.08h0Z"/>
        <path d="m147.29,304.22c-.04.05-.06.12-.06.21,0,.09.02.18.07.27l.07.03.04.12.08.03.08.08.04.07c.18.11.39.16.63.16.38,0,.77-.05,1.16-.14l.06-.07.07.05.07-.02.07-.06h.15c.63-.18,1.27-.45,1.93-.81l.07-.11.15-.02.11-.09.15-.06.09-.05v-.08h.13s.08-.06.12-.08l.1-.09.13-.08.1-.05c.51-.36,1.01-.76,1.49-1.2l.02-.1h.08s.06-.06.06-.06l.02-.09.13-.07c.14-.13.26-.25.36-.36.43.44.86.84,1.31,1.21l.1.03.08.12.13.08.09.09c.62.47,1.24.86,1.86,1.18h.06l.04.05s.05.02.1.03h.07l.12.1c1.02.47,1.97.71,2.84.71.29,0,.53-.08.73-.23.2-.15.29-.33.29-.54,0-.1-.03-.18-.09-.24s-.13-.09-.21-.09c-.09,0-.15.03-.21.08s-.08.11-.08.18c0,.06.01.11.04.16s.04.09.04.12c0,.1-.05.18-.15.25-.1.07-.23.1-.37.1-.18,0-.35,0-.54-.03l-.14.06-.09-.08c-.1-.01-.24-.04-.42-.08l-.04.04-.06-.04v-.02c-.08-.01-.16-.05-.16-.05h-.15l-.1-.06-.14.02-.12-.11c-.55-.2-1.13-.47-1.72-.81h-.05v-.05s-.07-.04-.11-.07h-.06l-.1-.05-.02-.06c-.6-.38-1.18-.83-1.75-1.34l-.05-.02-.07-.03-.07-.05v-.08s-.07,0-.07,0l-.1-.15-.03-.04-.46-.47c.38-.41.72-.83,1.04-1.27l.02-.15.13-.08.07-.13.1-.11.07-.11-.02-.07.1-.05.1-.15.02-.11.09-.08c.35-.62.63-1.22.82-1.8v-.04s.03-.05.03-.05c.04-.11.08-.27.13-.48l-.04-.05.04-.07.04-.03c0-.07.02-.11.02-.14v-.03s0-.1,0-.1l.06-.13v-.17l.02-.04c.03-.25.04-.5.04-.74,0-.52-.05-1-.16-1.46l-.03-.03v-.1s-.03-.11-.03-.11l-.04-.07-.04-.14v-.05s-.02-.07-.02-.07l-.04-.03-.03-.08v-.1s-.01-.04-.01-.04l-.08-.04-.04-.13-.02-.13-.11-.11v-.1c-.32-.55-.7-.96-1.15-1.23l-.07.05-.06-.06-.06-.1s-.06.01-.12.03l-.1-.07-.1-.06h-.15l-.09-.1c-.16-.03-.32-.04-.46-.04-.4,0-.77.1-1.13.3l-.02.06-.12.02-.03.03-.08.09-.1.09h-.05s-.04.04-.04.04v.11l-.07.03h-.08s-.03.04-.07.06v.07l-.02.05v.38s-.04.16-.04.16c0-.16-.01-.3-.03-.41l-.08-.03c-.36.43-.64.95-.84,1.55l.03.04-.06.09-.04.12v.17l-.07.1v.13s-.02.1-.02.1l-.03.05c-.05.33-.08.64-.08.93,0,.34.04.69.1,1.08l.07.05-.04.1v.03s.07.07.07.07l.05.11-.06.11c.17.69.46,1.4.87,2.15l.05.02v.07c.04.08.1.17.1.17l.11.14.04.11h.07l.02.08v.06s.06.09.06.09l.05.02.09.1.03.13s.04.03.12.09l.04.14c.21.3.46.61.72.92l.07.05.04.07.04.06.09.02.05.08v.06s.04.04.06.06c-.23.23-.47.48-.74.74l-.08.15-.13.06-.1.1-.05.02-.15.14v.08h-.1c-.07.06-.13.1-.16.13l-.05.09-.11.04-.11.08v.03h-.04c-.62.46-1.22.84-1.82,1.14l-.06.07h-.1s-.04.02-.04.02l-.06.07-.08.02h-.07c-.93.41-1.79.62-2.59.62-.14,0-.27-.03-.37-.1-.1-.06-.15-.15-.15-.25,0-.03.01-.07.04-.12s.04-.11.04-.16c0-.05-.02-.11-.06-.16s-.09-.08-.16-.09v.03s-.07-.03-.07-.03c-.03,0-.08.02-.08.02l-.06.09-.08.02.02-.02Zm7.97-3.18l-.18.2c-.41-.45-.78-.91-1.1-1.36l-.08-.04v-.08s-.11-.16-.27-.41h-.03v-.03s-.07-.12-.16-.28l-.08-.05v-.08s-.1-.07-.1-.07v-.09c-.18-.34-.35-.66-.48-.96l-.07-.07v-.1s-.02-.06-.02-.06l-.08-.06v-.16c-.27-.76-.41-1.47-.41-2.12,0-.46.1-.92.32-1.38.22-.46.54-.83.95-1.11l.08-.15.21-.03c.38-.2.83-.3,1.33-.3.18,0,.35,0,.51.03v-.41s.04-.16.04-.16c.02.29.04.47.06.54l.19-.02.08.12s.09.02.13.04c.07.02.16.05.26.08h.02l.03.04c.07.03.14.07.21.12h.18v.12s.08.03.08.03l.1.09.04.06c.3.28.52.62.67,1.03s.22.83.22,1.27c0,.7-.15,1.46-.47,2.26v.22l-.1.06c-.38.88-.91,1.76-1.57,2.62v.04l-.04.06-.13.12v.05l-.05.07-.11.08-.06.13-.06.05-.07.03v.02Z"/>
        <path d="m161.5,297.11l.21-.62.13-.26.31-.77.21-.52.34-1.08.14-.42s-.07.06-.11.12v.05s-.08.05-.08.05v.08s-.07.07-.07.07h-.04s-.02.02-.02.02v.12h-.07s-.01.02-.01.02v.02l-.04.1-.07.06v.09l-.08.04c-.29.5-.49,1.04-.61,1.63l.03.02v.03s-.01.06-.01.06v.11s-.02.08-.02.08v.08l-.04.03v.15h-.04c-.03.21-.03.42-.03.64v.02s0-.02,0-.02Zm3.31-.98l.07.03v.11c.13.19.29.34.48.45.19.12.4.18.6.2h0l.07-.03.07.04.07-.05.05.03v.02s.08-.01.08-.01h.07c.35-.06.66-.2.94-.43v-.05s.08-.04.08-.04l.02-.08.05-.05h.06s.01-.08.01-.08l.04-.02.04-.02h0v-.04l.05-.09.07-.06v-.1h.07c.07-.14.13-.28.18-.43l-.04-.02v-.05l.07-.03c.04-.16.07-.34.07-.53l-.07-.04h.08s0-.04,0-.04c0-.08,0-.17-.01-.25l-.04-.05v-.1s-.04-.06-.04-.06l-.03-.09.02-.07-.05-.05v-.11s.01-.02.01-.02h-.02l-.04-.1-.02-.08v-.02s-.04-.05-.04-.05v-.04c-.08-.14-.17-.28-.28-.42h-.02l-.04-.03v-.04c-.13-.15-.29-.29-.46-.41h-.05l-.05-.06h-.06l-.07-.05-.02-.05s-.02,0-.03,0h-.04s-.04,0-.04,0v-.06s-.05,0-.05,0h-.02l-.07-.03-.04-.02h-.1l-.02-.04c-.27-.08-.52-.12-.77-.14l.17.16c.42.07.8.26,1.11.59l.04.02.02.05c.22.26.39.56.49.9l.08.05-.05.05c.05.21.07.42.07.63,0,.31-.05.61-.14.89h.27l.08.02c-.18,0-.28.04-.28.04l-.09.03c-.12.33-.29.6-.52.8-.22.2-.47.3-.74.3-.2,0-.39-.05-.57-.13-.18-.09-.32-.2-.44-.33-.12-.13-.21-.28-.27-.45-.07-.17-.1-.34-.1-.51,0-.18.03-.36.08-.52v-.08h.04c.08-.2.2-.35.35-.46.15-.11.33-.17.52-.17.14,0,.27.03.38.1s.21.16.29.27h.02v.04c.08.14.12.28.12.44s-.04.29-.11.39c-.07.1-.15.15-.25.15-.04,0-.07,0-.1-.04s-.04-.06-.04-.09c0-.03-.02-.06-.04-.09-.02-.03-.05-.04-.1-.04h-.04s-.01.03-.01.03h-.01s-.02.02-.02.02h-.01s-.04.07-.04.13v.04s.01.02.01.02l.04.09.07.03v.05c.05.03.1.05.17.05.14,0,.27-.06.38-.18s.18-.27.19-.46v-.18s.01-.04.01-.04l-.04-.04v-.1s0-.04,0-.05l-.04-.1v-.02c-.05-.14-.13-.26-.24-.35-.1-.09-.23-.15-.36-.19l-.04.03-.07-.03-.02-.02h-.03s-.03,0-.03,0h-.04s-.02.02-.02.02v-.03c-.24,0-.45.1-.63.26l-.02.05-.09.06c-.21.24-.32.57-.32.98,0,.16.02.31.06.45v.02s.01.03.01.03c.01.04.03.09.03.09l.05.07.04.09v.02Zm-1.91,4.8h.1l.18.02h.08c-.18.01-.28.05-.28.05h-.02c.16.17.34.32.52.46h.07l.05.06.05.02.07.04v.04s.05.01.05.01h.09v.05s.04.02.04.02l.09.04.02.02s.06.02.06.02h.05l.02.05c.27.13.55.22.83.28l.07-.02.06.04.05-.02.07.03.03.02h.05s.03-.02.03-.02l.05.03.24.02.03-.02.02.02h.25c.43,0,.77-.02,1.03-.07l.04-.03.04-.02h.06s.13-.05.13-.05l.04.03h.01l.04-.05.07.02.03-.02h0l.09-.03h.07s.05-.06.05-.06l.05.02c.35-.11.72-.28,1.1-.49l.02-.03.04-.04h.07s.02-.05.02-.05h.06c.25-.16.52-.35.8-.57l.04-.08.07-.03.05-.06.04-.05h.04s.01,0,.01,0l.02-.06.02-.04.04.02.03-.02v-.02l.07-.07.07-.04.03-.09h.07c.17-.16.35-.32.52-.5.18-.17.38-.38.61-.62.24-.25.4-.41.49-.5l.02-.02.03-.07h.04s0-.01.01-.01c.01,0,.01-.02.01-.02v-.06s.08-.02.08-.02c.64-.64,1.2-1.08,1.66-1.31l.05-.05.06-.02h.04c.25-.11.49-.18.72-.21l.04-.02.04-.02.04.02h.04s.06-.03.06-.03l.06.02h.11s0,0,0,0h.02c.08,0,.15,0,.24.02l.05-.04.1.07c.15.04.29.11.43.19l.06.02.04.03.02.04c.07.06.14.12.2.19h.05l.14.02h.08c-.1.01-.17.03-.22.03.23.26.38.58.45.96l.03.06.03.04-.02.08.02.06v.12s-.01.03-.01.05v.05s.01.02.01.02v.05s0,.03,0,.03v.27s.04.08.04.08l-.05.08-.02.07c-.02.16-.05.31-.1.45v.05l-.02.02c-.07.21-.17.4-.29.56v.05s-.06.02-.06.02l-.04.03-.02.02v.07l-.09.02-.1.07v.02h-.03c-.06.03-.13.08-.13.08h0l-.07.03-.05.05h-.13c-.12.03-.24.04-.35.04h-.12s-.02.02-.02.02l-.05-.02-.02-.02c-.21-.05-.38-.15-.5-.32l-.04-.02-.02-.03v-.05s-.05-.06-.06-.09v-.02h-.01c-.04-.1-.05-.19-.05-.29s.01-.18.05-.26v-.05l.02-.05.04-.02s.04-.04.04-.04v-.05s.07-.03.07-.03h.02s.09-.04.13-.04c.04,0,.06,0,.08.03.02.02.04.05.04.07,0,.02.02.05.03.08s.03.05.04.06h.04s0,.02,0,.02h.04s.07-.01.1-.05.04-.09.04-.14c0-.05-.04-.15-.04-.15l-.04-.02-.02-.06h-.07l-.03-.03-.04-.03h-.04c-.14,0-.27.06-.38.17s-.18.26-.21.44l.02.07-.04.04v.03s.03.06.03.06l-.02.1c.03.21.11.38.25.53h.04v.03h.07l.1.03v.08s.07,0,.07,0l.04.05c.13.05.27.08.41.08h.13s.01-.03.01-.03l.04.02h.1s.08-.03.08-.03v.02c.51-.08.92-.31,1.26-.68v-.07l.04.02c.08-.09.15-.18.18-.25v-.05l.06-.05h.01v-.03s-.12-.02-.12-.02h-.08c.08,0,.15-.02.21-.02v-.02l.04-.09h.01s.01-.04.01-.04l-.02-.06.03-.04.04-.02v-.06s0-.04,0-.04v-.12h.05c.04-.18.06-.36.06-.55,0-.15-.01-.29-.04-.44l-.05-.03.04-.03c-.04-.18-.11-.35-.21-.52l-.05-.05h-.04v-.07s-.04-.02-.04-.02l-.04.83v-.87s-.05-.07-.05-.07v-.07s-.07,0-.07,0l-.02-.03v-.07s-.03-.02-.03-.02h-.05l-.07-.05v-.07s-.01-.01-.01-.01l-.04-.03v-.03c-.24-.18-.49-.32-.77-.42s-.55-.15-.83-.15c-.1,0-.2,0-.32.02l-.03.03-.07-.02h-.02s-.05.02-.05.02l-.07.02h-.05s-.03.02-.03.02l-.04.02h-.08s-.04.02-.04.02l-.04.02h-.08s-.05.05-.05.05h-.07c-.35.15-.74.39-1.16.73l-.08.09h-.03c-.29.26-.76.7-1.38,1.33l-.04.13h-.07s-.05.06-.05.06l-.07.05h-.01s-.03.03-.03.03v.05l-.04.02h-.03l-.05.04v.04l-.05.09-.05-.03h-.01s-.03.07-.03.07l-.07.04h0c-.41.4-.8.75-1.18,1.05-.38.3-.77.56-1.19.78l-.03.04h-.04c-.11.05-.18.09-.24.11h0s-.02.01-.02.01c-.01.01-.06.03-.13.06l-.07.06-.02-.02-.07.02v.02h-.05c-.59.22-1.24.33-1.93.33-.39,0-.77-.07-1.15-.23l-.12.02-.18-.02h-.08c.16-.02.26-.03.28-.04-.46-.22-.88-.55-1.26-1.01l-.08-.06-.06-.08-.03-.05-.07-.1v-.03s-.02-.04-.02-.04h-.02l-.02-.02v-.03s-.06-.02-.06-.02l.04-.02-.02-.05h-.04l-.07-.06.02-.07-.07-.05-.03-.06v-.05c-.29-.57-.49-1.21-.6-1.91l-.04-.07.02-.08v-.08s-.01-.04-.01-.04v-.16s-.04-.02-.04-.02v-.05s.01-.02.01-.02v-.1s-.02-.02-.02-.02v-.05s-.1,0-.1,0l-.18-.02h-.08c.18,0,.28-.04.28-.04l.1-.03v-.06s-.01-.06-.01-.06v-.02c.01-1.05.22-1.98.64-2.79v-.05s-.01-.02-.01-.02h.05c.32-.59.71-1.05,1.18-1.38.47-.33.95-.5,1.45-.5.09,0,.18,0,.27.02l-.14-.14-.03.03h-.05l-.06-.04h-.01l-.04.04-.04-.03c-.38,0-.73.08-1.07.21l-.02.03h-.05s-.04,0-.04,0v.06h-.14s-.04.02-.04.02l-.02.04-.03.04-.04-.03-.04.02-.08.06-.07.02-.04.06h-.06c-.28.18-.53.39-.74.62l-.11.44-.27.74-.38,1.07-.23.49-.39,1.01v.09s-.01.11-.01.11c.01.33.05.66.11.99l.04.07v.09s.03.07.03.07l.02.08v.03s0,.08,0,.08l.02.02.02.04v.03c0,.1.04.2.07.3l.04.03.03.03-.04.02c.06.17.12.32.19.46h0l.06.06v.09s.07.05.07.05l.03.08v.04s.01.01.01.02c0,.02.01.03.01.03l.03.02.03.03v.04c.15.26.34.5.54.72l.07.04Z"/>
        <path d="m59.6,298.39l-.65-.08.21-.04h.87s.65.04.65.04v.06c-.21.02-.57.03-1.08.02m-6.51.49l-.58-.03.15-.1.51-.04,1.08.02c.29.01.29.05,0,.11l-1.16.04Zm4.18.27c-.36-.03-.57-.08-.57-.19l1.16-.18,1.08.03.21.18-.57.13h-.21c-.14.02-.87.04-1.08.04m-28.92.78v-.12c0-.09.29-.17.8-.23l-.15-.04v-.05l.8.02c1.16-.09,2.46-.13,3.98-.13h5.21s1.8-.08,1.8-.08h2.1c.07-.14.15-.34.07-.62l.51.2.8.44.87.06h.57s6.87-.01,6.87-.01h.43s.72-.07.72-.07h.87s.65.08.65.08h12.15s1.16-.08,1.16-.08h3.04s1.59.08,1.59.08h18.43s.36-.05.36-.05l2.03.05h5.64s.15-.34.15-.34l.87.34h12.07s.43-.15.43-.15l1.37-.04-.21.19h4.12s1.3-.09,1.3-.09l1.73.09h1.8c2.46,0,5.42.16,5.42.43v.12s2.24,0,2.24,0v-.64s-.72-.19-.72-.19l.29-.09-6.07-.05-11.35-.22-27.4-.35,18.87.13,6.07.13,17.5.23,2.6.03.21-.08v-.5s-.72-.14-.72-.14l.72-.06v-.67s-2.24,0-2.24,0v.12c0,.27-2.96.43-5.42.43h-7.23s-1.52.07-1.52.07l-3.54-.07h-2.67s-1.73.03-1.73.03l-1.66-.03h-5.5s-.94.13-.94.13l-2.46-.13h-20.89c.07.17.07.28,0,.31l-.87.36-.15-.19-.72-.21-.15-.18.15-.09h-9.18s-1.8.03-1.8.03l-.29-.03h-1.74s-.8.11-.8.11h-2.89s-2.1-.08-2.1-.08l-1.59-.02-1.3.11-.36-.11h-7.95s-2.39.08-2.39.08l-2.17-.08h-5.06c-2.46,0-5.42-.16-5.42-.43v-.12s-2.24,0-2.24,0v.38s1.01.17,1.01.17l-1.01.11v1.25s1.01.03,1.01.03l-.36.26-.65.14v.12s2.24,0,2.24,0h0Z"/>
        <path class="cls-5" d="m148.37,296.52l.22.62v-.02c0-.22-.01-.43-.04-.65h-.04v-.05s0-.08,0-.08l-.06-.03v-.08s-.03-.08-.03-.08v-.11s-.01-.06-.01-.06v-.03s.04-.02.04-.02c-.13-.59-.32-1.13-.61-1.63l-.09-.04v-.09s-.06-.06-.06-.06l-.04-.1v-.02s-.01-.02-.01-.02h-.06v-.05s-.01-.07-.01-.07v-.03h-.06l-.05-.06v-.08s-.08-.05-.08-.05v-.05c-.06-.05-.13-.12-.13-.12l.14.42.34,1.08.21.52.31.77.13.26h0Z"/>
        <path class="cls-5" d="m145.18,296.08l.07-.03.04-.09.05-.07s.02-.09.02-.09v-.03l.02-.02c.04-.14.06-.29.06-.45,0-.4-.1-.73-.32-.98l-.09-.06-.02-.05c-.18-.16-.39-.25-.62-.26v.03s-.04-.03-.04-.03h-.1s-.02.02-.02.02l-.07.03-.04-.03c-.13.03-.25.1-.36.19s-.19.21-.25.35v.02l-.04.1s-.01.03-.01.05v.05s.01.05.01.05l-.03.04v.04s.01.04.01.04v.08s0,.06,0,.06c.03.19.1.34.21.46.11.12.24.18.38.18.07,0,.12-.02.17-.05v-.05l.07-.03.04-.09v-.02s.01-.02.01-.04c0-.05-.04-.14-.04-.14h-.01s-.02,0-.02,0h-.01v-.04h-.05s-.07,0-.1.04-.04.06-.04.09c0,.03-.01.06-.04.09-.02.03-.05.04-.1.04-.1,0-.18-.05-.25-.15-.07-.1-.11-.23-.11-.39s.04-.3.12-.44v-.04h.02c.07-.11.17-.2.29-.27s.24-.1.38-.1c.2,0,.37.06.52.17.15.11.27.27.35.46h.03v.08c.05.16.08.33.08.52,0,.17-.04.34-.1.51-.07.17-.15.32-.27.45-.12.14-.27.25-.44.33-.18.09-.36.13-.57.13-.27,0-.52-.1-.74-.3-.22-.2-.4-.47-.52-.8l-.09-.03s-.1-.03-.28-.04l.08-.02h.27c-.1-.28-.14-.58-.14-.89,0-.21.02-.42.07-.63l-.05-.05.08-.05c.1-.35.27-.65.49-.9l.02-.05.04-.02c.32-.33.69-.52,1.11-.59l.17-.16c-.26,0-.52.06-.77.14l-.02.03h-.05s-.04.02-.04.02l-.04.02-.07.03h-.02s-.04.02-.04.02v.06s-.06,0-.06,0h-.04s-.03,0-.03,0l-.02.05-.07.04h-.06s-.05.06-.05.06h-.05c-.18.13-.33.26-.46.41v.04l-.04.04h-.02c-.11.13-.2.27-.27.41v.04l-.05.05v.1s-.06.1-.06.1l-.02.02h0v.07s0,.04,0,.04l-.05.05.02.07-.03.09-.04.06v.1l-.03.05c-.01.08-.01.17-.01.25v.04s.08,0,.08,0l-.07.04c0,.19.03.37.07.53l.06.03v.05l-.03.02c.04.15.1.29.18.45h.05v.08s.08.06.08.06l.05.09v.04s0,.02,0,.02h.04l.04.02v.09h.07l.05.05.02.08.07.04v.05c.3.23.61.38.96.42h.07l.07.03v-.02s.07-.03.07-.03l.07.05.07-.04.07.04h0c.21-.02.41-.09.6-.2.2-.11.35-.26.49-.45v-.11s-.03-.06-.03-.06Z"/>
        <path class="cls-5" d="m147.22,300.85h.1c.21-.21.38-.46.55-.72v-.04s.01-.03.01-.03l.03-.02s0-.02.01-.03,0-.02,0-.02v-.04l.04-.08.05-.05v-.09s.07-.06.07-.06h0c.07-.14.13-.3.19-.46l-.04-.02.03-.03.04-.03c.03-.1.07-.2.09-.3v-.03s0-.04,0-.04l.02-.02s.02-.08.02-.08v-.03s0-.08,0-.08l.02-.07v-.09l.04-.07c.07-.33.1-.66.11-.99l-.03-.11v-.09s-.38-1.01-.38-1.01l-.23-.49-.38-1.07-.27-.74-.11-.44c-.21-.23-.46-.43-.74-.61h-.06l-.04-.07-.07-.02-.08-.06-.04-.02-.04.03-.03-.04-.02-.04h-.18v-.07s-.02,0-.02,0h-.05l-.02-.03c-.34-.13-.69-.2-1.07-.21l-.04.03-.04-.04h-.01s-.06.04-.06.04h-.05l-.03-.04-.14.14c.1-.02.19-.02.27-.02.5,0,.98.17,1.45.5s.86.79,1.18,1.38h.05v.08c.41.81.61,1.74.61,2.79l.02.02v.12s.08.03.08.03c.01,0,.1.02.28.04l-.08.02h-.29s0,.06,0,.06l-.02.02v.1s.01.02.01.02v.05l-.02.02v.2l-.02.08.02.08-.04.07c-.1.7-.31,1.34-.61,1.91v.05s-.01.06-.01.06l-.07.05.02.07-.07.07h-.04s-.02.04-.02.04l.04.02-.04.02v.03s-.04.03-.04.03h-.02s-.01.03-.01.03v.03l-.07.1-.03.05-.06.08-.08.06c-.37.45-.79.79-1.26,1.01.03.01.13.02.28.04l-.08.02h-.18l-.12-.02c-.38.15-.76.23-1.15.23-.69,0-1.34-.11-1.93-.33l-.04-.02h0l-.07-.02-.02.02-.07-.06c-.07-.03-.11-.05-.13-.06h-.02c-.05-.03-.13-.07-.24-.11h-.04l-.03-.05c-.41-.22-.81-.48-1.19-.78-.38-.31-.77-.66-1.18-1.05h0l-.07-.04-.03-.06h-.01s-.05.02-.05.02l-.06-.09v-.04s-.04-.05-.04-.05h-.07v-.06s-.04-.03-.04-.03h-.01l-.07-.05-.05-.08h-.07l-.04-.11c-.62-.63-1.08-1.08-1.38-1.32h-.03l-.08-.1c-.41-.34-.8-.58-1.16-.73h-.07l-.05-.05h-.08l-.04-.02-.04-.02h-.08l-.04-.02-.03-.02h-.04s0,0,0,0l-.07-.02-.05-.02h-.02s-.07.02-.07.02l-.03-.03c-.13-.02-.24-.02-.32-.02-.28,0-.56.05-.83.15-.28.1-.53.24-.75.42v.03s-.06.03-.06.03h0v.08l-.08.05h-.05s-.01.02-.01.02v.07s-.04.03-.04.03h-.07v.07l-.04.07v.87s-.04-.83-.04-.83l-.02.02v.08h-.05s-.05.04-.05.04c-.1.17-.16.35-.21.52l.04.03-.05.03c-.03.14-.04.29-.04.44,0,.18.01.36.06.55h.04v.15s.01.06.01.06l.04.02.03.04-.02.06v.04h.03l.04.08v.02c.06,0,.13.02.21.02l-.08.02h-.12s0,.03,0,.03h0l.05.05v.05c.04.07.1.15.18.25l.04-.02v.07c.33.37.74.6,1.24.68v-.02s.1.03.1.03h.1s.04-.02.04-.02v.03h.15c.14,0,.27-.03.41-.08l.04-.05h.08s0-.08,0-.08l.1-.02h.04s.01-.01.01-.01h.02v-.03h.03c.14-.15.22-.33.25-.53l-.02-.1.03-.06v-.03s-.04-.04-.04-.04l.02-.07c-.03-.18-.1-.33-.21-.44s-.24-.17-.38-.17h-.04s-.04.03-.04.03l-.03.03h-.07s-.02.05-.02.05l-.04.02s-.04.09-.04.15.01.1.04.14c.03.03.06.05.1.05h.04s0-.02,0-.02h.03s.03-.03.04-.06.03-.05.03-.08c0-.03.02-.05.04-.07.02-.03.04-.03.08-.03.04,0,.09.01.13.04h.02l.06.03v.05s.05.04.05.04l.04.02.03.05v.05c.03.09.04.17.04.26,0,.1-.01.19-.05.29v.02h-.01s-.04.09-.04.09v.05s-.04.03-.04.03l-.04.02c-.13.16-.29.27-.5.32l-.02.02-.05.02-.02-.02h-.12c-.12,0-.24-.01-.35-.04h-.13l-.05-.05-.07-.04h0s-.07-.04-.13-.07h-.01v-.02s-.12-.07-.12-.07l-.1-.02v-.07s-.01-.02-.01-.02l-.04-.03-.04-.02v-.05c-.14-.15-.24-.34-.31-.56l-.04-.02v-.05c-.03-.15-.06-.3-.08-.45l-.02-.07-.05-.08.04-.08v-.19s.01-.02.01-.04v-.04s-.02-.03-.02-.03v-.05s.03-.02.03-.02v-.1s-.01-.02-.01-.02v-.1l.03-.06-.02-.08.03-.04.03-.06c.07-.37.22-.7.45-.96-.05-.01-.13-.03-.22-.03l.08-.02h.19c.06-.07.13-.13.2-.19l.02-.04.04-.03.06-.02c.13-.08.27-.15.43-.19l.1-.07.05.04c.08-.02.15-.03.24-.04h.02s0,.01,0,.01h.11s.06-.02.06-.02l.06.03h.02s.02,0,.02,0l.04-.02.04.02.04.02c.24.03.48.1.72.21l.04.02h.06l.05.05c.46.24,1.02.67,1.66,1.31l.07.02v.06s.02.02.03.02.01.02.01.02h.04l.03.06.02.02c.1.09.26.26.49.5s.43.44.61.62.35.35.52.51h.07l.03.09.07.04.07.07v.02s.02.02.02.02l.04-.02.02.04.02.06h.06l.04.05.05.06.07.03.04.08c.28.22.55.41.8.56h.06l.02.06h.07l.04.04.02.03c.38.21.74.37,1.1.49l.05-.02.05.06h.07l.09.03v.02s.03,0,.03,0l.07-.02.04.05h.01s.04-.03.04-.03l.13.05h.06l.04.02.04.03c.26.05.6.07,1.03.07h.25s.02-.02.02-.02l.03.02.24-.02.05-.03.03.02h.05s.03-.02.03-.02l.07-.03.05.02.06-.04.07.02c.27-.06.55-.15.83-.28l.02-.03h.05s.06-.03.06-.03l.02-.02.09-.04.04-.02v-.05h.08s.04-.02.04-.02v-.04s.09-.04.09-.04l.05-.02.05-.08h.07c.18-.13.35-.28.52-.46h-.02s-.1-.03-.28-.04l.08-.02h.18s.05-.02.05-.02Z"/>
      </g>
    </g>
    <g id="Layer_1-2-4" data-name="Layer 1-2">
      <g>
        <path d="m10.59,242.82c0-.24-.01-.64,0-1.22l.04-.75.02.25v.99l-.03.72s-.03,0-.03,0Zm-.32-2.4v-.25c-.01-.17-.03-1.06-.03-1.33,0-.46.03-.72.08-.72l.09,1.45v1.3l-.09.25-.05-.68h0Zm.12-5.63l-.02-1.68.02-.87.05.21.02.75v1.57c-.02.4-.03.4-.07,0m.72-93.54h0l.08.31h.22l-.22,7s-.08-7.31-.08-7.31Zm-1.76,4.68l-.18-4.37h.48v7l-.3-2.63Zm.82-7.2l.28-4.94.43-11.92-.17,8.21-.16,2.64-.29,7.61-.02.63h-.12l.05-2.24h0Zm.74-27.72c-.03-.09-.04-.25-.02-.47l.1-.28.07.09-.02.38-.05.28h-.08Zm-.91-.91l-.02-.09s-.05-.38-.05-.47c.03-.16.1-.25.23-.25l.23.51-.03.47-.22.09s-.14-.25-.14-.25Zm.34-1.89l-.05-.5.04-.25.13.07.05.21-.02.47c-.02.12-.06.12-.14,0m.9-12.11h.25l-.16.32-.09-.32Zm-1.95.16l-.1-.16h.45l-.03.32s-.32-.16-.32-.16Zm1.68-.28l.14-1.29.08,1.29h-.22Zm-1.19,0l.23-1.29.11.56.12-9.79.24-11.55.18-13.4-.04,7.82-.08,3.78-.25,18.86-.06,4.71.07.31h-.52Zm.85-41.29s-.01-.09,0-.19l.03-.11.02.04v.15l-.02.11h-.03Zm-.27-.36v-.04s-.02-.15-.01-.17c0-.05.03-.09.07-.09l.06.19v.19l-.07.04-.04-.09h0Zm.1-.7v-.27l.03.03v.24s-.02.04-.04,0m.24,223.3v-.48h-.02c-.05,0-.08-.67-.08-1.26v-2.29l.02-1.03v-1.96l.02-1.97-.03-.36.04-.98.05-11.13c-.06.05-.1.05-.11,0l-.13-.6.07-.11.07-.52.06-.11.03.11.04-7.74v-3.98l-.03-.9v-3.5l.07-2.8.02-2.29-.05-1.99.06-.58.07-15.36-.02-5.94.08-6.14.08-18c.05-11.29.3-28.11.58-28.11h.13l.13-15.34h.16v-.98h-.15c-.34,0-.53-1.29-.53-2.36v-3.15l-.09-.66.09-1.54v-1.17l-.03-.75.03-.72v-2.39l-.16-.4.16-1.07v-9.08c-.22.03-.35.03-.39,0l-.45-.38.24-.07.25-.31.23-.07.11.07v-4l-.04-.79.04-.12v-.75l-.13-.35v-1.26l.11-.91.02-.7-.13-.56.13-.16v-3.46l-.1-1.03.1-.94v-2.2c0-1.07.2-2.36.53-2.36h.15v-.98l-.11-4.05h-.14c-.31,0-.56-4.68-.61-7.99l-.11-7.61-.08-1.29.02-2.71-.02-1.8-.03-1.07v-.97l-.03-2.8-.08-.43.06-1.06-.09-6.59c-.08.01-.12.01-.13,0l-.16-.2.08-.03.09-.16.08-.03.04.03-.03-1.89-.02-.34v-.36l-.04-.13v-.48l.02-.34v-.24l-.03-.19.03-.05v-1.07l-.04-.3.02-.25v-.56c-.01-.25.03-.56.1-.56h.03v-.21h-.11l-.05.09-.03-.09h-.34v.09l-.08-.03-.04-.07h-.03v.21h.03s.05.03.06.08h0s.02-.01.02-.01v.08c.02.12.03.25.02.42v.8s.01.25.01.25c0,0,.1.01.19,0l-.06.07-.14.09-.02.11v.08l-.02.97v.07l.03.11v.13l-.03.11-.03,2.15.03.23v.64l-.05.36-.08,5.31.02.13-.04.76-.03,2.41.2.07-.21.42-.11,7.34.11.34.02,1.1-.15-.17-.06,3.69.06,1.33-.11,1.89-.03,2.17c-.05,3.31-.3,7.99-.61,7.99h-.14l-.11,4.05h0v.98h.15c.1,0,.2.12.28.35l.05-.07h.06l-.03.35c.12.5.17,1.07.17,1.73v2.27l.1.79v.91c.18.03.43.07.78.03l-.24.21-.55.35-.07.38v3.25l.02.19.1.31v.38l-.12.28v5.28l.11.5v1.31l-.11.7v8.02l.06.16-.06.89v2.45l.42.07-.42.38v5.26l.18.19.05.6-.24-.09v1.8l.12.56-.12.75v.79c0,1.07-.19,2.36-.53,2.36h-.15v.98h.06l.14,15.34h.13c.09,0,.18,1.84.27,4.92l.03-.87h.05v4.67c.13,6.26.2,12.66.24,19.4l.09,18.43.08,5.12.02,5.33c.09.17.22.35.4.17l-.12,1.19-.27,1.81-.03,1.89v1.22l.06,12.18v.66l.05,1.06v1.23l-.03.9.07,13.24.04.99v3.63s.04,10.62.04,10.62v3.31l.1.05-.09.32.02,3.97.03.12v.39l-.03-.07v1.13l.03.34-.02.44v.44c0,.58-.02,1.26-.07,1.26h-.02v.48h.13l.04-.16.02.07v-1.37l.05-2.98.1-10.66-.05,7.98-.03,1.96-.05,4.56v.6h.1l.03-.16v.16h.17Z"/>
        <path d="m9.62,42.65c.33.78.62,1.57.88,2.41.33-1.11.75-2.15,1.22-3.13-.02-.36-.02-.71-.02-.9,0-.46.03-.79.32-.55.1.08.15.28.19.51.14-.27.27-.56.42-.82.35-.58.74-1.11,1.14-1.65.03-.4.1-.87.27-.86.08,0,.13.12.17.27.49-.6,1-1.18,1.56-1.72-.67-.64-1.25-1.34-1.81-2.08-.17-.13-.29-.27-.34-.43,0-.01-.02-.03-.03-.04-.2.27-.53.68-.53.38s.08-.59.19-.87c-.21-.31-.45-.6-.64-.93-.16-.27-.29-.56-.43-.85-.15.07-.25.08-.25,0,0-.09.04-.2.09-.31-.12-.24-.25-.47-.36-.71-.14.15-.27.24-.27.05,0-.13.06-.28.09-.42-.37-.85-.7-1.73-.98-2.67-.2.68-.46,1.31-.71,1.94,0,.01.03,0,.03.03,0,.55-.29,1.14-.53,1.56-.02.03-.35.52-.54.64-.13.24-.24.51-.38.74-.03.05-.07.09-.1.15.04.12.08.24.1.36.03.12.05.24.06.36v.11c.02.09,0,.19-.05.25h-.08c-.09-.05-.17-.13-.23-.24-.04-.07-.09-.15-.13-.21-.01-.03-.02-.05-.04-.08-.19.3-.4.55-.6.83.01.01.03.03.03.04,0,.2-.18.36-.42.5-.03.04-.08.08-.12.12.26.07.45.16.45.32,0,.27-.55.4-1.08.39-.3.36-.59.74-.94,1.06.64.62,1.2,1.29,1.73,2,.19.11.31.25.32.4.03.04.06.07.09.11.13-.13.24-.21.24-.03,0,.09-.05.2-.06.3.27.39.56.76.8,1.17.22-.04.38-.03.38.04,0,.13-.07.24-.17.36.09.17.18.34.26.51.12-.12.23-.19.23-.03,0,.11-.05.21-.07.34.11.23.24.44.35.68.2-.27.52-.66.52-.36,0,.32-.1.64-.23.95"/>
        <path d="m9.09,47.03c0-1.05.63-1.89,1.41-1.89s1.41.85,1.41,1.89-.63,1.89-1.41,1.89-1.41-.85-1.41-1.89m3.79,0c0-1.77-1.07-3.19-2.38-3.19s-2.38,1.42-2.38,3.19,1.06,3.19,2.38,3.19,2.38-1.44,2.38-3.19"/>
      </g>
    </g>
    <g id="Layer_1-2-5" data-name="Layer 1-2">
      <g>
        <path d="m299.69,242.82c0-.24-.01-.64,0-1.22l.04-.75.02.25v.99l-.03.72s-.03,0-.03,0Zm-.32-2.4v-.25c-.01-.17-.03-1.06-.03-1.33,0-.46.03-.72.08-.72l.09,1.45v1.3l-.09.25-.05-.68h0Zm.12-5.63l-.02-1.68.02-.87.05.21.02.75v1.57c-.02.4-.03.4-.07,0m.72-93.54h0l.08.31h.22l-.22,7s-.08-7.31-.08-7.31Zm-1.76,4.68l-.18-4.37h.48v7l-.3-2.63Zm.82-7.2l.28-4.94.43-11.92-.17,8.21-.16,2.64-.29,7.61-.02.63h-.12l.05-2.24h0Zm.74-27.72c-.03-.09-.04-.25-.02-.47l.1-.28.07.09-.02.38-.05.28h-.08Zm-.91-.91l-.02-.09s-.05-.38-.05-.47c.03-.16.1-.25.23-.25l.23.51-.03.47-.22.09s-.14-.25-.14-.25Zm.34-1.89l-.05-.5.04-.25.13.07.05.21-.02.47c-.02.12-.06.12-.14,0m.9-12.11h.25l-.16.32-.09-.32Zm-1.95.16l-.1-.16h.45l-.03.32s-.32-.16-.32-.16Zm1.68-.28l.14-1.29.08,1.29h-.22Zm-1.19,0l.23-1.29.11.56.12-9.79.24-11.55.18-13.4-.04,7.82-.08,3.78-.25,18.86-.06,4.71.07.31h-.52Zm.85-41.29s-.01-.09,0-.19l.03-.11.02.04v.15l-.02.11h-.03Zm-.27-.36v-.04s-.02-.15-.01-.17c0-.05.03-.09.07-.09l.06.19v.19l-.07.04-.04-.09h0Zm.1-.7v-.27l.03.03v.24s-.02.04-.04,0m.24,223.3v-.48h-.02c-.05,0-.08-.67-.08-1.26v-2.29l.02-1.03v-1.96l.02-1.97-.03-.36.04-.98.05-11.13c-.06.05-.1.05-.11,0l-.13-.6.07-.11.07-.52.06-.11.03.11.04-7.74v-3.98l-.03-.9v-3.5l.07-2.8.02-2.29-.05-1.99.06-.58.07-15.36-.02-5.94.08-6.14.08-18c.05-11.29.3-28.11.58-28.11h.13l.13-15.34h.16v-.98h-.15c-.34,0-.53-1.29-.53-2.36v-3.15l-.09-.66.09-1.54v-1.17l-.03-.75.03-.72v-2.39l-.16-.4.16-1.07v-9.08c-.22.03-.35.03-.39,0l-.45-.38.24-.07.25-.31.23-.07.11.07v-4l-.04-.79.04-.12v-.75l-.13-.35v-1.26l.11-.91.02-.7-.13-.56.13-.16v-3.46l-.1-1.03.1-.94v-2.2c0-1.07.2-2.36.53-2.36h.15v-.98l-.11-4.05h-.14c-.31,0-.56-4.68-.61-7.99l-.11-7.61-.08-1.29.02-2.71-.02-1.8-.03-1.07v-.97l-.03-2.8-.08-.43.06-1.06-.09-6.59c-.08.01-.12.01-.13,0l-.16-.2.08-.03.09-.16.08-.03.04.03-.03-1.89-.02-.34v-.36l-.04-.13v-.48l.02-.34v-.24l-.03-.19.03-.05v-1.07l-.04-.3.02-.25v-.56c-.01-.25.03-.56.1-.56h.03v-.21h-.11l-.05.09-.03-.09h-.34v.09l-.08-.03-.04-.07h-.03v.21h.03s.05.03.06.08h0s.02-.01.02-.01v.08c.02.12.03.25.02.42v.8s.01.25.01.25c0,0,.1.01.19,0l-.06.07-.14.09-.02.11v.08l-.02.97v.07l.03.11v.13l-.03.11-.03,2.15.03.23v.64l-.05.36-.08,5.31.02.13-.04.76-.03,2.41.2.07-.21.42-.11,7.34.11.34.02,1.1-.15-.17-.06,3.69.06,1.33-.11,1.89-.03,2.17c-.05,3.31-.3,7.99-.61,7.99h-.14l-.11,4.05h0v.98h.15c.1,0,.2.12.28.35l.05-.07h.06l-.03.35c.12.5.17,1.07.17,1.73v2.27l.1.79v.91c.18.03.43.07.78.03l-.24.21-.55.35-.07.38v3.25l.02.19.1.31v.38l-.12.28v5.28l.11.5v1.31l-.11.7v8.02l.06.16-.06.89v2.45l.42.07-.42.38v5.26l.18.19.05.6-.24-.09v1.8l.12.56-.12.75v.79c0,1.07-.19,2.36-.53,2.36h-.15v.98h.06l.14,15.34h.13c.09,0,.18,1.84.27,4.92l.03-.87h.05v4.67c.13,6.26.2,12.66.24,19.4l.09,18.43.08,5.12.02,5.33c.09.17.22.35.4.17l-.12,1.19-.27,1.81-.03,1.89v1.22l.06,12.18v.66l.05,1.06v1.23l-.03.9.07,13.24.04.99v3.63s.04,10.62.04,10.62v3.31l.1.05-.09.32.02,3.97.03.12v.39l-.03-.07v1.13l.03.34-.02.44v.44c0,.58-.02,1.26-.07,1.26h-.02v.48h.13l.04-.16.02.07v-1.37l.05-2.98.1-10.66-.05,7.98-.03,1.96-.05,4.56v.6h.1l.03-.16v.16h.17Z"/>
        <path d="m298.72,42.65c.33.78.62,1.57.88,2.41.33-1.11.75-2.15,1.22-3.13-.02-.36-.02-.71-.02-.9,0-.46.03-.79.32-.55.1.08.15.28.19.51.14-.27.27-.56.42-.82.35-.58.74-1.11,1.14-1.65.03-.4.1-.87.27-.86.08,0,.13.12.17.27.49-.6,1-1.18,1.56-1.72-.67-.64-1.25-1.34-1.81-2.08-.17-.13-.29-.27-.34-.43,0-.01-.02-.03-.03-.04-.2.27-.53.68-.53.38s.08-.59.19-.87c-.21-.31-.45-.6-.64-.93-.16-.27-.29-.56-.43-.85-.15.07-.25.08-.25,0,0-.09.04-.2.09-.31-.12-.24-.25-.47-.36-.71-.14.15-.27.24-.27.05,0-.13.06-.28.09-.42-.37-.85-.7-1.73-.98-2.67-.2.68-.46,1.31-.71,1.94,0,.01.03,0,.03.03,0,.55-.29,1.14-.53,1.56-.02.03-.35.52-.54.64-.13.24-.24.51-.38.74-.03.05-.07.09-.1.15.04.12.08.24.1.36.03.12.05.24.06.36v.11c.02.09,0,.19-.05.25h-.08c-.09-.05-.17-.13-.23-.24-.04-.07-.09-.15-.13-.21-.01-.03-.02-.05-.04-.08-.19.3-.4.55-.6.83.01.01.03.03.03.04,0,.2-.18.36-.42.5-.03.04-.08.08-.12.12.26.07.45.16.45.32,0,.27-.55.4-1.08.39-.3.36-.59.74-.94,1.06.64.62,1.2,1.29,1.73,2,.19.11.31.25.32.4.03.04.06.07.09.11.13-.13.24-.21.24-.03,0,.09-.05.2-.06.3.27.39.56.76.8,1.17.22-.04.38-.03.38.04,0,.13-.07.24-.17.36.09.17.18.34.26.51.12-.12.23-.19.23-.03,0,.11-.05.21-.07.34.11.23.24.44.35.68.2-.27.52-.66.52-.36,0,.32-.1.64-.23.95"/>
        <path d="m298.19,47.03c0-1.05.63-1.89,1.41-1.89s1.41.85,1.41,1.89-.63,1.89-1.41,1.89-1.41-.85-1.41-1.89m3.79,0c0-1.77-1.07-3.19-2.38-3.19s-2.38,1.42-2.38,3.19,1.06,3.19,2.38,3.19,2.38-1.44,2.38-3.19"/>
      </g>
    </g>
  </g>
</svg>